<?xml version="1.0" encoding="UTF-8"?>
<svg id="Layer_1" data-name="Layer 1" xmlns="http://www.w3.org/2000/svg" viewBox="0 0 1336.68 1328.84">
  <defs>
    <style>
      .cls-1 {
        fill: #ccdacd;
      }

      .cls-2 {
        fill: #1a5921;
      }

      .cls-3 {
        fill: #d2ded3;
      }

      .cls-4 {
        fill: none;
        stroke: #1a5921;
        stroke-miterlimit: 10;
        stroke-width: 13px;
      }

      .cls-5 {
        fill: #d9e3da;
      }

      .cls-6 {
        fill: #fcfdfc;
      }

      .cls-7 {
        fill: #fdfdfd;
      }

      .cls-8 {
        fill: #eaefea;
      }

      .cls-9 {
        fill: #fefefe;
      }
    </style>
  </defs>
  <path class="cls-9" d="M472.73,1286.61c-94.87-30.35-178.72-79.62-250.69-148.42-98.66-94.31-162.17-208.42-189.84-342.26-10.57-51.12-14.95-102.81-12.56-154.88,7.28-158.96,63.97-297.97,171.55-415.33C284.33,124.11,399.05,59.07,533.71,29.54c51.27-11.24,103.3-16.07,155.74-14.08,163.1,6.2,305.27,64.13,424.91,175.28,94.88,88.15,157.29,195.9,188.41,321.63,10.67,43.09,16.45,86.92,17.88,131.3,3.45,106.52-17.53,207.97-63.57,304.11-30.36,63.4-70.19,120.28-119.07,170.81-52.7,54.48-113.03,98.52-181.02,132-58.72,28.92-120.46,48.38-185.14,58.59-41.42,6.54-83.07,8.98-124.93,7.57-32.8-1.1-65.38-4.62-97.63-10.9-1.07-.54-59.96-13.93-76.57-19.25Z"/>
  <path class="cls-2" d="M81.25,666.39c-.68-322.36,263.93-588.54,593.55-582.92,316.31,5.39,576.33,265.2,572.42,590.57-3.84,319.38-265.39,578.18-588.13,575.5-319.87-2.66-578.39-263.4-577.84-583.14Z"/>
  <path class="cls-9" d="M89.42,666.22c-.09-317.25,260.17-579.23,583.75-574.48,312.53,4.58,569.56,261.49,565.79,581.97-3.69,314.32-261.36,569.91-579.26,567.54-315.77-2.35-570.47-260.2-570.29-575.03Z"/>
  <path class="cls-7" d="M179.22,256.67c5.54-.07,10.21,5.16,9.59,10.24-.56,4.58-3.77,7.61-6.46,10.93-1.12,1.38-2.02,.26-2.89-.45-2.05-1.67-4.37-3.11-6.06-5.09-1.83-2.13-6.86-2.65-5.18-6.46,2.08-4.69,5.75-8.5,11.01-9.17Z"/>
  <path class="cls-6" d="M309.17,158.11c.74,.24,2.06,.5,3.21,1.09,4.79,2.41,4.9,3.81,.66,6.87-2.95,2.13-6.03,4.09-8.81,6.41-2.91,2.42-3.78,.96-4.49-1.81-1.66-6.45,2.74-12.73,9.43-12.56Z"/>
  <path class="cls-2" d="M654.73,1228.39c-141.48-2.24-272.51-53.81-381.26-158.65-99.89-96.3-154.21-215.22-169.58-352.53-11.05-171.81,39.67-322.02,161-445.22,109.92-111.62,245.2-167.49,401.81-166.9,152.53,.57,284.18,55.77,392.97,162.75,101.19,99.5,153.18,222.36,166.58,362.58,3.49,111.69-18.07,217.5-74.39,315.04-50.55,87.55-119.54,156.91-206.98,207.67-86.78,50.38-180.71,74.44-290.16,75.27Z"/>
  <path class="cls-9" d="M121.06,695.37c4.22,8.49,5.65,17.36,7.38,26.1,5.86,29.68,10.67,59.57,20.89,88.24,7.04,19.74,14.62,39.23,24.19,57.89,3.52,6.86,7.62,13.35,14.63,17.27,10.99,6.14,25.17,.55,27.74-10.93,1.07-4.81-.29-9.22-2.56-13.4-7.21-13.3-13.75-26.92-19.98-40.71-8.65-19.13-12.81-39.48-16.41-59.96-6.15-34.95-11.3-70.14-10.76-105.64,.82-54.44,11.79-106.92,34.98-156.53,5.05-10.82,10.28-21.61,12.71-33.45,.61-2.97,.86-5.94,.55-8.93-1.21-11.82-12.96-17.88-23.27-12.05-4.33,2.45-7.11,6.31-9.94,10.29-23.26,32.75-35.9,69.83-44.8,108.5-4.48,19.45-9.38,38.8-12.35,58.56-1.09,7.23-1.67,14.54-2.58,21.8-.32,2.6-.95,5.16-2.65,7.75-7.08-5.64-7.94-13.46-8.17-21.24-.86-30.4,5.27-59.98,12.17-89.27,22.7-96.28,68.09-180.6,135.62-252.89,52.74-56.45,114.58-100.15,185.57-130.64,8.94-3.84,19.16-3.42,28.97-2.58,3.4,.29,2.81,2.02,1.06,3.87-2.99,3.16-6.47,5.74-10.02,8.23-16.77,11.75-34.54,21.92-51.89,32.75-31.26,19.52-58.65,43.78-85.13,69.14-25.64,24.56-50.37,50.02-71.12,78.96-11.54,16.09-22.49,32.6-33.35,49.16-5.09,7.75-7.78,16.52-7.66,25.95,.09,6.83,2.68,12.41,8.91,15.62,6.17,3.19,12,1.41,17.34-2.3,6.26-4.34,11.04-10.19,15.06-16.51,14.34-22.55,31.01-43.36,48.63-63.31,38.56-43.66,80.33-84.02,128.01-117.76,38.11-26.97,79.04-48.43,124.52-60.36,40.58-10.65,81.86-14.02,123.69-12.7,54.54,1.71,107.29,12.14,158.3,31.45,41.65,15.77,79.21,38.3,112.75,67.67,31.98,28.01,63.28,56.77,90.21,89.74,18.09,22.15,33.7,46.26,50.17,69.67,5.59,7.95,12.06,14.81,22.91,14.64,10.8-.16,18.34-8.47,17.5-19.28-.33-4.19-1.2-8.26-3.25-11.96-18.89-34.09-38.48-67.92-63.86-97.56-48.7-56.86-106.56-102.02-175.6-132.14-9.89-4.31-19.47-9.33-29.12-14.17-3.39-1.7-6.74-3.59-9.67-6.62,5-2.88,10.41-2.23,15.55-2.6,5.75-.4,11.36-.12,16.93,2.4,147.83,66.73,250.08,175.87,305.48,328.45,16.03,44.15,25.32,89.88,28.91,136.7,.59,7.71,.62,15.62-2.03,23.16-.71,2.01-1.36,5.12-3.37,5.1-2.36-.02-2.26-3.29-2.54-5.22-1.48-10.2-2.15-20.55-4.15-30.65-7.52-37.99-15.49-75.88-29.68-112.11-7.08-18.09-17.71-34.21-28.11-50.45-1.54-2.4-3.54-4.45-5.87-6.08-5.19-3.63-10.77-5.53-16.79-2.22-6.27,3.45-9.12,9.03-8.8,16.14,.39,8.63,3.4,16.6,6.89,24.33,9.84,21.81,19.79,43.52,25.96,66.79,10.1,38.14,17.32,76.71,15.38,116.32-2.23,45.44-7.49,90.56-19.94,134.48-5.6,19.74-15.5,37.76-24.91,55.9-.69,1.33-1.41,2.64-2.1,3.97-4.55,8.81-3.76,16.65,2.2,21.91,6.95,6.14,16.64,6.77,24.48,1.54,7.69-5.13,11.62-13.09,15.48-21.03,19.69-40.5,32.86-83.04,39.96-127.5,1.83-11.49,4.14-22.91,7.62-34.05,.58-1.86,.89-3.9,2.72-5.48,4.69,5.52,5.76,12.1,6.5,18.89,1.06,9.73-.81,19.24-2.14,28.74-8.43,60.44-26.27,117.99-53.76,172.48-25.74,51.04-58.55,97.06-98.42,138.06-46.3,47.62-99.32,85.88-159.22,114.5-11.03,5.27-23.12,7.16-35.4,7.09-2.11-.01-4.89,0-5.61-2.3-.63-2.02,1.67-3.46,3.1-4.74,7.61-6.82,16.43-11.88,25.16-17.06,17.45-10.35,35.37-19.92,52.1-31.43,24.5-16.86,46.37-36.89,67.79-57.38,25.17-24.08,49.5-49,69.99-77.3,12.19-16.84,23.72-34.17,35.09-51.58,4.95-7.58,7.62-16.28,7.42-25.53-.15-6.76-2.8-12.36-9.05-15.57-6.02-3.09-11.7-1.4-16.92,2.12-6.47,4.35-11.34,10.34-15.46,16.81-14.18,22.25-30.54,42.89-48.02,62.52-44.75,50.25-92.98,96.65-150.23,132.89-46.36,29.35-96.34,48.55-150.86,55.37-43.68,5.47-87.31,4.75-130.89-1.56-49.07-7.11-96-21.07-140.47-43.11-27.91-13.84-53.02-31.78-76.48-52.16-30.58-26.57-60.13-54.26-86.23-85.26-19.4-23.04-35.55-48.61-53.03-73.14-3.02-4.24-6.29-8.17-10.68-11.05-7.22-4.73-16.06-4.97-22.53-.4-7.08,5-7.98,12.25-6.71,20.07,.59,3.64,2.08,7.03,3.89,10.21,18.62,32.89,37.45,65.85,62.11,94.54,41.43,48.21,89.11,89.2,146.3,118.13,17.2,8.7,34.41,17.38,51.55,26.17,5.03,2.58,9.88,5.52,14.37,8.99,2.57,1.98,2.31,3.33-.85,4.13-6.2,1.58-12.51,1.28-18.84,1.45-17.53,.47-32.39-7.17-47.4-14.69-54.02-27.06-102.6-61.75-145.19-104.57-79.3-79.73-130.38-174.77-152.91-285.01-3.43-16.79-6.55-33.72-7.34-50.84-.48-10.28,1.91-20.32,9.69-28.64Z"/>
  <path class="cls-9" d="M471.42,1187.63c4.41-.69,8.85-1.2,13.21-2.13,4.38-.93,8.39-2.84,9.57-7.66,1.23-5.04-2.17-8.09-5.62-10.82-7.08-5.61-15.12-9.65-23.12-13.73-25.16-12.83-51.12-24.25-74.84-39.68-60.51-39.36-111.87-87.94-149.29-150.33-8.04-13.4-16.54-26.53-24.04-40.25-2.08-3.81-3.95-7.7-4.05-12.18-.18-8.1,6.69-12.87,14.25-9.81,5.17,2.09,8.48,6.23,11.59,10.64,16.68,23.67,32.43,48.08,50.8,70.45,26.68,32.5,57.45,61.1,89.09,88.75,25.57,22.34,53.13,41.67,83.82,56.33,41.67,19.9,85.42,33.06,131.01,40.3,27.19,4.32,54.55,6.42,82.05,6.31,58.07-.22,114.21-10.04,166.93-35.4,45.31-21.79,85.8-50.59,123.01-84.38,41.93-38.07,80.78-78.8,113.94-124.82,4.57-6.35,8.12-13.38,13.22-19.37,3.04-3.57,6.09-7.08,10.22-9.42,5.28-3,9.89-1.11,11.59,4.73,1.27,4.37,.21,8.59-.97,12.76-1.59,5.64-4.23,10.75-7.53,15.63-20.3,30.07-40.15,60.41-65.36,86.85-30.15,31.62-61.26,62.16-96.34,88.32-20.31,15.14-43.04,26.47-64.62,39.61-6.4,3.9-12.79,7.84-18.42,12.82-4.27,3.78-8.82,7.86-6.9,14.39,1.78,6.05,7.34,7.11,12.73,8.42-131.51,50.19-263.48,51.46-395.93,3.69Z"/>
  <path class="cls-9" d="M471.87,145.19c109.24-42.81,255.28-49.63,385.1-.13-2.01,1.87-4.72,1.36-7.02,2.18-8.49,3.05-9.95,9.4-3.11,15.34,7.76,6.75,17.29,10.53,26.41,14.9,26.38,12.63,53.23,24.44,77.65,40.69,59.8,39.79,110.56,88.5,147.45,150.77,7.46,12.59,15.39,24.89,22.47,37.7,1.94,3.51,3.63,7.13,3.95,11.2,.3,3.81-.31,7.37-3.78,9.7-3.62,2.43-7.47,2.65-11.36,.72-4.3-2.12-7.39-5.6-10.11-9.43-13.39-18.86-26.9-37.63-40.07-56.64-15.09-21.76-33.76-40.32-52.33-58.93-21.41-21.47-43.87-41.82-67.63-60.67-43.21-34.27-92.62-55.74-145.46-69.94-46.76-12.57-94.44-17.48-142.81-16.72-85.75,1.34-162.06,29.48-230.79,80.01-26.25,19.3-49.75,41.63-73.63,63.62-33.72,31.05-62.75,66.14-89.89,102.9-4.73,6.41-8.26,13.67-13.71,19.61-2.26,2.46-4.56,4.85-7.42,6.63-6.63,4.11-12.39,1.24-12.82-6.64-.44-8.08,2.32-15.4,6.43-22.18,36.3-60.03,83.3-110.71,135.99-156.58,27.55-23.98,58.58-42.67,89.39-61.79,7.07-4.39,14.04-8.94,20.48-14.23,1.67-1.37,3.34-2.78,4.76-4.4,2.69-3.05,5.04-6.44,3.69-10.78-1.44-4.65-5.53-5.82-9.76-6.58-.59-.11-1.18-.19-2.1-.33Z"/>
  <path class="cls-9" d="M108.25,651.4c4.23,4.4,7.81,8.13,13.21,6.47,5.39-1.66,6.37-6.85,7.4-11.57,2.78-12.69,2.67-25.78,5.48-38.51,7.49-33.91,14.53-67.93,26.86-100.54,7-18.5,17.66-34.98,28.25-51.5,3.6-5.62,8.74-7.92,12.37-6.17,4.2,2.02,5.68,6.86,4.03,13.66-3.09,12.69-8.97,24.26-14.43,36.01-14.18,30.55-22.29,62.9-28.02,95.92-3.53,20.37-6.12,40.92-5.39,61.58,1.78,50.5,7.19,100.6,21.51,149.27,5.69,19.33,15.52,37.03,24.79,54.87,.69,1.33,1.42,2.63,2.1,3.96,1.94,3.76,2.98,7.53-.43,11.04-3.48,3.6-9.04,4.58-13.34,2.29-5.24-2.78-8.43-7.53-11.05-12.57-13.75-26.49-24.03-54.34-32.2-83-6.3-22.12-9.06-44.97-14.03-67.37-1.58-7.13-2.91-14.35-5.93-21.06-3.96-8.81-10.06-9.59-16.27-2.15-1.15,1.38-2.18,2.87-3.97,5.24-1.14-8.19-.81-15.53-.95-22.83-.14-7.31-.03-14.62-.03-23.03Z"/>
  <path class="cls-9" d="M1220.25,654.62c-.08,12.62,.36,25.03-.65,37.37-1.56,.65-1.77-.72-2.35-1.31-6.03-6.2-11.47-5.34-15.07,2.67-3.57,7.93-5.19,16.47-6.84,24.94-6,30.83-11.04,61.87-21.92,91.55-6.58,17.95-13.48,35.73-22.16,52.79-2.57,5.06-5.35,10.02-9.95,13.59-5.17,4.01-10.85,3.89-15.51-.19-3.32-2.91-3.56-6.85-.12-12.71,23.09-39.39,35.41-82.15,40.81-127.26,3.86-32.25,8.58-64.47,6.48-97.01-3.28-50.85-13.84-100.05-35.92-146.35-4.29-9-8.42-18.08-10.98-27.77-2.27-8.61-.99-13.73,3.96-15.79,3.95-1.64,8.75,1.95,13.31,8.31,26.55,36.98,38.02,79.74,47.95,123.19,4.79,20.95,8.64,42.01,10.86,63.37,.12,1.15,.39,2.3,.69,3.42,2.92,10.95,7.62,12.99,17.39,7.21Z"/>
  <path class="cls-2" d="M201.89,684.67c.96-66.48,12.64-130.56,43.41-190.26,12.02-23.32,26.37-45.07,43.76-64.76,6.63-7.51,14.58-13.16,24.48-15.53,14.33-3.44,26.67,9.25,23.16,23.63-1.95,7.98-6.81,14.35-11.21,20.99-28.13,42.44-50.23,87.61-61.65,137.52-1.88,8.23-3.54,16.45-1,25.1,4.11,14,13.16,22.39,27.01,25.9,10.42,2.64,21.03,3.38,31.72,2.13,14.72-1.72,24.15-10.43,29.72-23.58,6.74-15.9,12.02-32.38,18.98-48.21,15.48-35.21,34.63-68.21,59.67-97.5,14.71-17.2,33.07-30.38,51.5-43.27,25.35-17.73,50.57-35.67,78.9-48.6,15.15-6.92,30.76-12.5,46.85-16.75,5.47-1.45,10.85-3.2,15.96-5.61,3.68-1.74,6.87-4.03,7.51-8.61,1.04-7.45-2.11-11.15-9.61-10.92-14.04,.43-26.87,5.79-39.98,9.98-44.15,14.12-84.77,35.17-121.15,63.8-36.3,28.57-67.49,62-88.72,103.47-12.25,23.93-22.72,48.77-34.02,73.19-1.81,3.92-3.6,7.88-5.76,11.61-5.25,9.05-13.4,11.87-22.93,8.22-8.78-3.36-12.85-10.99-10.71-20.99,2.37-11.08,6.65-21.58,10.72-32.1,12.24-31.64,24.97-63.01,44.52-91.13,37.3-53.68,84.65-95.74,142.74-125.86,34.29-17.78,69.07-34.24,106.46-44.54,32.06-8.83,64.78-10.52,97.54-6.79,66.75,7.59,125.7,33.62,176.98,77.18,44.11,37.47,84.4,78.49,117.16,126.36,17.59,25.71,32.68,52.9,40.8,83.36,.73,2.72,1.34,5.5,1.72,8.29,1.45,10.71-1.53,16.6-10.14,20.37-9.95,4.36-18.55,2.43-25.13-5.53-4.19-5.07-7.43-10.78-9.42-16.91-8.22-25.42-23.14-47-38.53-68.34-17.13-23.75-33.62-47.95-54.86-68.48-31.58-30.54-64.89-58.77-103.17-80.67-19.75-11.3-40.79-19.39-63.14-23.83-7.38-1.47-14.88-1.64-22.27,.41-1.12,.31-2.25,.62-3.31,1.08-4.14,1.8-8.04,4.2-7.8,9.27,.22,4.65,4.42,5.95,8.12,6.94,5.93,1.59,11.99,2.71,17.95,4.23,25.55,6.52,49.22,17.73,71.09,31.95,54.45,35.42,101.3,78.85,136.04,134.41,9.09,14.53,14.03,30.78,20.36,46.47,4.79,11.87,10.22,23.42,16.07,34.82,5.83,11.36,14.78,17.65,27.25,19.21,16.67,2.08,32.77,1.12,47.76-7.77,11.64-6.91,17.38-16.82,17.87-30.25,.94-25.57-5.44-49.34-16.64-72.12-9.27-18.86-20.34-36.61-32.15-53.94-4.97-7.3-9.53-14.87-11.5-23.63-1.49-6.63-1.33-13.03,4.32-17.91,5.84-5.04,12.43-5.95,19.56-2.98,10.48,4.36,17.97,12.44,25.43,20.51,15.85,17.14,27.43,37.15,38.27,57.61,12.62,23.82,23.62,48.34,31.18,74.3,4.93,16.94,5.87,34.4,6.67,51.84,2.44,53.03-3.96,105.01-20.01,155.63-14.19,44.74-35.97,85.4-67.09,120.79-6.28,7.14-13.87,12.5-23.15,14.96-15.15,4.03-27.81-8.76-23.98-23.94,1.58-6.28,5.02-11.56,8.56-16.79,28.54-42.18,51.02-87.15,63.15-136.88,2.16-8.84,4.67-17.72,2.56-27.05-3.53-15.58-13.17-24.94-28.58-28.55-9.65-2.26-19.44-2.97-29.28-2.05-15.31,1.42-25.45,10.03-31.16,23.84-7.55,18.26-13.59,37.14-22.02,55.04-33.26,70.59-81.74,127.44-150.86,165.16-28.49,15.55-58.83,27.11-89.12,38.65-3.41,1.3-6.9,2.54-10.06,4.32-5.06,2.85-6.79,8.34-4.87,13.79,1.27,3.61,4.19,4.45,7.55,4.49,8.43,.1,16.44-1.98,24.46-4.34,49.76-14.66,96.08-36.38,137.03-68.43,36.39-28.47,67.74-61.77,89.19-103.11,11.92-22.97,21.92-46.94,32.81-70.45,2.23-4.82,4.45-9.66,6.91-14.37,4.71-9.04,12.61-12.8,21.44-10.39,9.86,2.68,15.14,10.79,13.06,20.93-2.88,14.06-8.54,27.24-13.7,40.54-12.65,32.61-27.1,64.2-47.97,92.7-38.69,52.82-87.81,92.74-146.17,121.94-33.05,16.54-66.53,31.83-102.53,40.86-31.24,7.84-63.08,9.03-94.74,4.99-71.41-9.1-133.46-38.81-186.46-87.68-23.88-22.02-48.16-43.55-69.25-68.39-33.72-39.72-57.78-84.33-69.08-135.48-1.64-7.41-2.59-14.76-.31-22.17,4.32-14.08,19.07-17.73,29.28-7.16,7.64,7.91,12.33,17.71,16.5,27.7,8.84,21.15,18.1,42.07,28.58,62.5,14.42,28.1,35.47,51.05,56.56,73.9,31.72,34.37,67.87,63.33,109.24,85.42,18.87,10.07,38.86,17.24,60.09,20.53,6.67,1.03,13.31,.53,19.72-1.6,2.01-.67,4.01-1.7,5.7-2.98,5.23-3.96,4.63-9.72-1.28-12.56-5.77-2.77-12.12-3.48-18.29-4.79-21.39-4.54-41.08-13.6-59.73-24.46-49.83-29.02-95.96-63.03-130.01-110.33-17.77-24.69-33.83-50.86-42.74-80.65-3.47-11.58-9.63-22.22-14.91-33.14-6.32-13.06-16.39-19.99-30.7-21.37-15.2-1.47-29.78-.28-43.6,7.15-13.63,7.32-19.54,18.56-19.74,33.74-.33,25.23,6.24,48.64,17.4,71.01,8.41,16.85,18.14,32.89,28.74,48.43,4.69,6.87,9.34,13.77,12.36,21.6,1.38,3.58,2.52,7.2,2.58,11.1,.18,12.12-9.99,20.06-21.74,16.88-7.13-1.93-12.76-6.34-18.09-11.17-17.23-15.64-29.98-34.69-41.24-54.81-16.84-30.09-31.92-60.99-40.12-94.69-4.27-17.54-4.55-35.61-5.29-53.57-.16-3.99-.02-7.99-.02-11.98Z"/>
  <path class="cls-2" d="M658.45,1127.87c-65.19-.31-133.35-21.39-196.75-58.77-47.39-27.94-89.31-62.58-125.35-104.23-6.05-6.99-8.95-15.15-9.42-24.15-.84-16.23,14.82-26.63,29.82-19.83,9.13,4.14,16.11,11.08,22.65,18.47,21.46,24.25,44.75,46.56,70.43,66.32,43.74,33.64,91.63,58.9,145.63,71.6,60.35,14.2,119.71,9.88,178.52-9.09,40.01-12.91,74.81-34.87,108.43-59.24,27.95-20.26,51.78-44.88,74.72-70.44,4.72-5.25,9.53-10.2,16.6-12.27,13.97-4.09,25.4,6.49,22.23,20.63-1.12,4.98-3.59,9.23-6.71,13.22-29.11,37.31-63.35,69.2-102.16,96.18-45.15,31.4-94.34,53.63-148.4,64.58-23.55,4.77-47.37,7.04-80.25,7Z"/>
  <path class="cls-2" d="M666.39,210.97c74.91,.4,143.76,21.88,207.74,60.01,46.83,27.91,88.27,62.35,123.9,103.71,6.03,6.99,8.77,15.35,9,24.31,.41,15.86-15.47,25.72-30.18,18.91-8.61-3.99-15.36-10.44-21.56-17.47-31.1-35.3-65.96-66.25-105.82-91.39-41.96-26.46-87.08-44.87-136.3-52.32-50.05-7.58-99.05-2.55-147.43,12.11-44.04,13.35-82.14,37.22-118.56,64.35-25.5,18.99-47.44,41.75-68.68,65.24-4.24,4.69-8.18,9.74-14.03,12.58-7.44,3.61-14.76,3.88-21.54-1.57-5.43-4.36-6.97-11.83-4.29-20.16,1.24-3.85,3.43-7.16,5.89-10.33,20.38-26.3,43.6-49.86,69.16-71.1,49.67-41.28,105.09-71.47,168.16-86.88,24.81-6.06,56.59-9.98,84.55-9.98Z"/>
  <path class="cls-9" d="M209.92,684.78c.92-64.27,12.02-126.32,41.33-184.25,11.93-23.56,26.26-45.51,43.74-65.36,5.38-6.12,11.82-10.66,19.68-13.11,4.46-1.39,8.12-.29,11.3,3.09,3.14,3.34,4.21,7.02,2.75,11.45-2.06,6.26-5.82,11.54-9.43,16.93-28.22,42.18-50.29,87.19-62.34,136.72-2.66,10.94-5.23,21.91-1.8,33.44,4.85,16.28,15.11,26.51,31.41,30.96,12.21,3.34,24.62,4.22,37.11,2.56,16.67-2.21,27.97-11.98,34.46-27.02,5.91-13.71,10.74-27.89,16.36-41.73,14.5-35.65,33.67-68.63,57.7-98.68,11.94-14.93,26.86-26.79,42.28-37.92,24.82-17.92,49.67-35.82,76.81-50.19,19.33-10.24,39.72-17.73,60.85-23.26,5.3-1.39,10.49-3.21,15.39-5.72,9.4-4.82,12.99-12.49,10.75-22.77-1.45-6.7-6.59-11.06-13.86-11.48-10.31-.6-20.07,2.04-29.84,4.94-50.21,14.9-96.96,36.91-138.28,69.29-39.46,30.92-72.94,67.26-95.14,112.79-12.3,25.23-23.63,50.92-35.46,76.38-3.17,6.83-7.07,9.29-12.05,7.98-7.1-1.86-9.61-6.01-7.77-13.59,2.32-9.54,5.9-18.69,9.42-27.83,11.76-30.57,23.68-61.07,42.31-88.35,35.66-52.2,80.72-93.89,136.82-123.57,37.25-19.71,75.03-37.94,116.12-48.29,29.08-7.33,58.73-8.47,88.27-5.05,62.85,7.28,118.94,31.04,167.86,71.48,44.1,36.46,83.99,76.95,117.12,123.68,18.5,26.1,34.29,53.87,42.88,85.1,.79,2.88,1.4,5.82,1.88,8.76,.75,4.61,.03,8.61-4.77,10.91-5.84,2.8-10.77,2.44-14.78-1.34-4.1-3.86-6.45-8.83-8.7-13.84-5.64-12.56-9.22-26.07-16.94-37.66-21.59-32.4-42.32-65.56-69.3-93.86-37.73-39.58-79.09-74.83-128.39-99.55-19.09-9.57-39.16-16.69-60.65-18.68-8.54-.79-16.98,.15-24.72,4.32-6.21,3.33-9.95,8.45-9.71,15.64,.24,7.31,5.12,11.13,11.47,13.55,5.32,2.03,10.9,2.89,16.41,4.14,29.62,6.73,56.34,20.33,81.19,37.07,32.94,22.2,62.96,48.11,89.25,78.06,24.68,28.12,44.97,58.84,56.42,94.93,3.61,11.38,9.56,21.89,14.81,32.64,7.34,15.03,18.87,23.71,35.54,25.44,16.96,1.75,33.42,.82,48.99-7.4,16.73-8.83,24.55-22.46,24.69-41.21,.19-24.96-5.66-48.41-16.34-70.82-9.4-19.72-20.89-38.19-33.18-56.21-4.6-6.74-8.93-13.65-11.01-21.66-.98-3.77-1.58-7.62,1.97-10.6,3.79-3.17,7.8-3.07,12.07-.92,7.43,3.74,13.29,9.39,18.93,15.3,17.09,17.88,29.35,39.03,40.61,60.79,12.85,24.83,24.72,50.12,31.21,77.48,4.01,16.91,4.69,34.29,5.05,51.58,1.15,55.77-6.64,110.18-26.4,162.54-13.74,36.41-32.87,69.71-58.56,99.11-4.58,5.24-10.06,9.2-16.36,12-4.98,2.2-9.95,2.88-14.34-1.45-4.15-4.09-4.76-8.28-2.09-14.64,2.21-5.25,5.51-9.86,8.65-14.56,28.2-42.19,50.23-87.22,62.21-136.77,2.57-10.62,4.99-21.28,1.84-32.47-4.78-16.98-15.52-27.37-32.43-31.8-11.26-2.95-22.69-3.76-34.19-2.59-18.83,1.93-30.93,12.9-37.72,29.96-7.62,19.13-14.36,38.6-23.04,57.3-17.61,37.99-41.44,72.06-70.6,101.6-30.8,31.2-67.26,55.21-108.19,71.95-19.82,8.11-39.49,16.56-59.61,23.92-8.2,3-14.81,7.51-16.07,17.17-1.5,11.42,5.02,19.16,16.53,19.33,11.34,.16,21.94-3.31,32.6-6.58,50.11-15.35,96.48-38.08,137.43-70.97,35.35-28.39,65.92-61.28,86.98-101.8,12.31-23.7,22.7-48.4,33.98-72.65,2.1-4.52,4.2-9.05,6.53-13.45,3-5.67,7.44-7.49,12.77-5.54,5.69,2.08,7.8,5.79,6.15,12.31-4.27,16.97-11.31,32.98-17.5,49.29-25.24,66.5-67.22,120.6-124.61,161.81-50.12,35.99-105.19,62.94-165.35,78.32-25.76,6.59-52.17,7.36-78.41,5.01-71.25-6.38-133.31-34.44-186.68-81.87-22.65-20.13-45.3-40.26-65.64-62.81-36.87-40.88-63.64-87.12-75.69-141.27-1.34-6.04-2.53-12.07-.5-18.22,2.79-8.47,9.74-10.28,15.84-3.83,8.65,9.13,13.22,20.68,17.83,32.06,8.99,22.2,19.02,43.89,30.71,64.8,14.13,25.25,33.8,46.16,53.19,67.19,31.82,34.52,68.11,63.54,109.5,85.92,20.31,10.98,41.79,18.87,64.75,22.23,8.17,1.2,16.27,.5,24.11-2.32,2.69-.97,5.17-2.26,7.38-4.08,9.57-7.88,8.13-20.74-3.04-26.03-6.37-3.02-13.37-3.87-20.19-5.35-21.36-4.64-41.01-13.83-59.59-24.82-47.74-28.23-92.29-60.88-124.9-106.47-17.15-23.99-33.28-49.14-41.76-78.22-3.66-12.56-10.31-24.09-16.16-35.85-7.5-15.1-19.51-22.94-36.08-24.65-18.14-1.87-35.42-.11-51.48,9.57-14.36,8.67-20.65,21.37-21.1,37.74-.8,28.71,7.21,55.12,20.24,80.33,8.73,16.88,18.84,32.89,29.52,48.58,4.4,6.47,8.53,13.12,10.57,20.8,1.05,3.94,1.81,7.96-1.91,11.05-3.99,3.31-8.24,2.89-12.57,.63-8.13-4.25-14.33-10.79-20.46-17.37-15.11-16.22-26.21-35.17-36.48-54.62-13.6-25.75-26.05-52.03-33.04-80.47-4.27-17.38-4.57-35.27-5.27-53.06-.15-3.82-.02-7.65-.02-11.48Z"/>
  <path class="cls-9" d="M667.29,1119.87c-72.33-.3-138.88-20.96-200.85-57.39-47.16-27.73-88.84-62.14-124.56-103.66-4.54-5.27-6.56-11.57-6.91-18.32-.52-10.12,8.49-16.35,17.83-12.46,6.9,2.87,12.44,7.75,17.3,13.24,29.35,33.2,61.59,63.14,98.43,87.93,46.12,31.04,96.09,52.68,151.33,60.96,61.21,9.18,120.39,.85,177.56-22.18,46.88-18.89,87.26-47.98,124.56-81.56,15.23-13.71,29.12-28.8,42.67-44.17,2.99-3.39,6.26-6.42,10.61-8.08,3.75-1.44,7.16-1.04,10.33,1.41,3.28,2.54,3.18,6.05,2.5,9.58-.85,4.38-3.49,7.83-6.19,11.25-31.06,39.25-67.61,72.51-109.42,99.95-41.4,27.18-86.1,46.64-134.77,56.51-8.79,1.78-17.68,3.21-26.58,4.37-14.54,1.89-29.16,2.7-43.83,2.64Z"/>
  <path class="cls-9" d="M658.54,219.02c67.04,.14,122.86,14.16,175.87,39.75,48.07,23.2,90.87,53.94,129.15,91.08,10.16,9.86,19.94,20.06,28.97,30.97,4.32,5.22,6.16,11.48,6.48,18,.47,9.57-8.99,15.92-17.87,12.12-8.14-3.48-14.31-9.63-20.06-16.15-25.31-28.7-53.13-54.68-84.23-77.02-43.55-31.29-90.88-54.32-143.64-65.48-54.54-11.53-108.39-8.51-161.93,6.48-44.23,12.38-83.18,34.65-120.11,61.3-30.6,22.08-56.94,48.57-81.9,76.59-3.14,3.53-6.59,6.57-11.09,8.23-3.78,1.4-7.26,.72-10.25-1.85-2.88-2.47-2.95-5.79-2.15-9.2,.73-3.12,2.02-5.97,4.04-8.49,62.22-77.72,139.15-133.31,237.04-157.23,26.14-6.39,52.76-9.06,71.69-9.1Z"/>
  <path class="cls-2" d="M928.14,667.86c-.59,148.26-120.12,263.14-261.72,263.79-152.33,.7-268.4-123.28-266.09-268.16,2.31-145.04,122.12-262.62,269.58-259.61,140.37,2.86,257.91,117.18,258.23,263.98Z"/>
  <path class="cls-9" d="M472.47,760.56c-1.44,3.09,.03,11.89,2.45,14.19,4.27,4.06,7.7-.26,9.72-2.3,3.51-3.53,7.4-6.78,10.46-10.76,.94-1.23,1.46-2.77,2.16-4.17,2.03,.68,1.38,1.84,.89,2.84-2.33,4.83-3.19,10.12-4.77,15.19-.6,1.91-1.08,3.99,.7,5.6,1.73,1.57,3.78,1.32,5.58,.25,5.25-3.11,9.51-1.77,14.17,1.78,5.49,4.19,11.26,2.2,14.16-4.14,6.2,4.17,12.49,.92,18.65-.08,4.22-.69,5.93-.73,4.11,4.24-.94,2.56-.84,5.59-.84,8.4,0,3.59,4.6,7.58,9.92,8.85,4.2,1.01,7.1-.62,8.83-4.51,.41-.91,.96-1.76,1.28-2.7,1.11-3.22,2.02-6.11,6.76-4.59,2.38,.76,4.81-1.11,6.38-3.2,2.49-3.33,4.98-6.67,7.2-10.18,2.08-3.28,.13-7.34-5.05-10.96-1.27-.89-3.51-1.47-1.38-3.36,1.64-1.45,1.05-6,5.35-3.99,3.21,1.5,6.48,1.19,9.67-.21,2.33-1.03,4.75-1.47,7.29-1.34,4.87,.26,6.34,1.94,5.75,6.67-.02,.17-.06,.33-.07,.49-.14,3.34-2.13,7.36,2.12,9.37,4.3,2.03,6.77-1,8.79-4.31,.57-.93,1.24-1.43,2.45-1.19,1.57,.31,2.34,1.2,2.38,2.72,.19,7.26,5.72,9.4,11.17,11.33,2.23,.79,2.62,1.82,2.56,3.94-.36,12.81,.24,25.7-1.01,38.42-1.87,19.05-3.13,38.12-4.1,57.22-.15,2.93-2.08,4.38-4.05,5.92-12.23,9.55-26.27,14.79-41.41,17.4-1.64,.28-3.34,.43-4.88,1.01-13.96,5.23-25.28-2.21-36.55-8.13-72.15-37.91-118.82-96.37-135.26-176.25-17.52-85.12,3.95-161.15,62.33-225.69,40.01-44.24,90.46-70.39,149.4-79.61,133-20.81,261.4,68.08,288.6,199.58,23.86,115.33-30.92,229.05-135.9,282.45-8.91,4.53-17.9,6.39-27.97,7.01-20.18,1.26-38.54-4.06-56.52-11.81-8.54-3.68-14.64-9.41-16.24-19.69-3.85-24.8-9.73-49.24-11.65-74.39-.9-11.82,5.45-19.78,11.35-28.36,1.12-1.62,2-1.12,2.97,.34,1.83,2.74,4.11,3.15,6.72,.93,3.08-2.62,6.55-3.04,10.28-1.68,1.77,.65,3.6,.39,6.5,.27-3.15,4.96-4.06,9.83-3.59,14.97,.43,4.73,5.45,10.07,10.59,11.13,4.44,.91,7.43-1.12,10.13-6.88,.63-1.35,1.32-2.68,1.85-4.08,.71-1.9,1.74-2.73,3.76-1.67,5.39,2.81,9.24,.66,12.23-3.96,1.65-2.55,3.39-2.79,6.76-3,8.33-.53,17.61,.11,24.22-6.95,1.64-1.76,2.45-2.89,4.75-.42,2.49,2.68,5.69,1.89,7.61-1.11,2.36-3.69,4.22-2.76,6.75-.21,3.62,3.64,7.73,6.8,11.26,10.52,2.7,2.84,4.92,2.56,7.78,.43,2.66-1.98,5.02-2.13,7.03,1.43,2.24,3.96,6.25,3,9.88,2.45,1.55-.23,3.2-1.46,4.48,.47,1.29,1.95,2.83,3.4,5.36,2.48,2.78-1.01,2.77-3.43,2.69-5.82-.02-.66,0-1.33,0-2.04,6.59,2.84,11.07-.99,10.61-9.12-.14-2.46-1.07-4.83,2.76-5.31,.96-.12,1.88-1.79,2.54-2.91,3.25-5.5,2.13-17.47-2.03-22.53-.29-.23-.39-.47-.3-.71,.09-.24,.19-.36,.28-.36,4.8,1.11,10.4-3.51,9-8.3-1.83-6.29-.83-12.51-1.16-18.75-.14-2.56,.09-5.25-2.72-6.41-2.91-1.2-4.5,1.06-6.26,2.88-1.02,1.06-1.88,3.18-3.82,2.21-1.22-.61-1.15-2.27-.96-3.65,.27-1.96,1.4-2.23,3.26-2.74,3.15-.85,5.82-3.01,9.49-1.36,1.1,.5,3.25-1.18,3-2.66-.59-3.54,2.54-5.86,2.72-8.53,.46-7.07,7.36-6.27,10.55-9.81,.95-1.06,1.5,.66,2.23,1.13,3.47,2.22,5.92,1.17,6.73-2.98,.38-1.96,.58-3.95,.87-5.93,.15-.98-.03-2.4,.55-2.87,6.46-5.27,3.2-11.91,2.81-18.19-.17-2.74,.12-5.29-1.73-7.9-.91-1.29,.02-4.36,1.53-5.92,2.53-2.62,4.15-5.26,2.2-8.84-2.17-3.96-4.84-6.97-10.11-6.19-3.12,.46-6.31-.08-9.77-1.28,4.38-4.31,2.22-7.6-1.22-11.26-4.83-5.15-8.61-10.98-7.47-18.7,.28-1.9-.72-3.58-2.14-4.85-3.23-2.88-6.53-5.68-9.79-8.53-1.36-1.19-3.1-1.85-4.63-1.2-6.52,2.82-11.25-2.36-16.83-3.62-2.01-.46-1.38-2.76-.99-4.36,.95-3.91-.09-6.64-4.37-7.29-2.47-.38-3.52-2.29-4.92-3.9-3.21-3.69-6.94-6.02-12.18-5.4-5.38,.64-7.55,4.23-8.95,8.78-.64,2.06-1.16,3.95-4.16,3.96-2.93,.01-3.57-1.86-4.47-3.8-1.52-3.28-1.75-7.85-5.21-9.34-4.7-2.02-7.71-5.3-11.26-8.73-4.88-4.72-9.08-9.13-11.22-15.79-1.87-5.83-7.98-6.98-12.84-3.04-2.75,2.24-4.56,2.98-4.88-1.66-.29-4.13-2.63-5.89-6.33-8.21-5.27-3.29-9.22-2.49-14.24-.89-3.78,1.2-6.91-.85-8.03-4.65-1.05-3.54-3.05-4.46-6.34-3.66-3.84,.94-8.04,.41-11.55,2.71-1.02,.67-1.94,.35-2.82-.06-6.8-3.14-13.34-1.57-19.71,1.25-2.84,1.26-3.79,.66-3.96-2.43-.18-3.28-2.84-4.34-5.25-6.24-5.56-4.37-10.63-.89-15.77-1.35-4.58-.41-10.4-1.04-14.67-4.67-4.96-4.22-10.11-3.96-13.6,1.31-2.61,3.94-7.09,6.64-7.66,12.41-4.91-4.07-9.72-4.05-14.86-1.99-3.29,1.31-6.83,1.13-10.35,.91-3.31-.21-6.65-.22-9.96,0-2.24,.15-4.58,1.2-4.65,3.73-.12,4.19-2.64,7.51-3.49,11.33-1.11,4.97-4,6.08-8.51,5.73-4.77-.37-8.33,1.55-10.14,6.29-2.15,5.65-7.07,10.03-7.28,16.62-.07,2.33-2.16,1.46-3.4,.96-10.59-4.27-14.34-2.87-19.49,7.99-1.34,2.83-2.09,4.86-5.88,3.2-1.85-.81-4.25-.32-6.36,.44-5.17,1.86-10.31,3.24-16.04,2.54-4.28-.53-7.08,2.56-8.37,6.52-1.02,3.15-1.61,6.44-2.37,9.68-.8,3.36-2.64,5.35-6.35,4.76-4.18-.67-6.55,1.26-7.99,5.05-1.36,3.56-2.99,7.02-4.59,10.48-.64,1.38-1.69,3.02-.93,4.24,2.01,3.24-.37,4.33-2.31,5.78-1.49,1.12-2.48,3.14-1.42,4.34,2.66,3.04,.73,4.97-.91,7.23-2.19,3.02-2.36,5.77,1.26,7.98,2.68,1.64,4.56,3.62,1.52,6.64-.11,.11-.23,.29-.24,.43-.04,4.6-.86,9.4,.24,13.71,.59,2.31,.96,3.57-.49,5.38-1.98,2.46-3.73,5.12-6.23,7.11-2.66,2.12-4.64,4.39-2.57,8.03,1.01,1.77-.69,2.21-1.61,3.05-5.95,5.38-6.68,8.12-3.55,15.29,.91,2.08,.85,3.67-.34,5.54-1.6,2.51-1.92,5.41-.95,8.17,.93,2.62,2.02,5.45,5.09,6.34,3.23,.93,4.41-1.8,6.54-3.78,0,3.73-.04,7.46,.01,11.19,.07,5.06,1.62,6.39,6.36,5.57,2.88-.49,6.17,2.64,4.92,5.22-1.79,3.66,3.11,10.99-5.98,10.98-1.67,0-4.19,16.07-3.11,18.12,.58,1.11,1.53,1.75,2.78,1.85,3.61,.28,7.24,1.5,10.8-.27,1.12-.24,1.57,.2,1.34,1.33Z"/>
  <path class="cls-9" d="M735.25,913.17c-48.24,14.44-96.34,12.86-145.23-1.29,11.51-2.77,22.46-4.58,32.17-10.2,.57-.33,1.19-.59,1.79-.88,12.9-6.37,21.18-14.26,21.16-31.1-.04-28.7,4.57-57.34,4.17-86.16-.04-2.65-.2-5.34-.69-7.93-1.01-5.37-2.92-6.13-8.18-3.37-.31-2.81-.69-5.03-3.94-6.62-2.92-1.44-5.58-4.71-6.93-7.79-2.8-6.39-3.51-6.93-8.6-2.74-.27-8.39-.72-8.49-9.26-7.79-5.78,.47-11.62-.09-17.17,2.27-1.9,.81-2.93-.87-4.07-2.13-3.16-3.48-5.49-3.53-7.84,.36-1.96,3.24-3.81,5.22-8.13,4.71-3.83-.45-6.12,2.34-5.02,6.12,1.49,5.12,3.56,10.21,9.56,11.82,3.38,.91,3.21,2.48,1.4,4.93-2.14,2.91-3.37,5.67-8.47,4.56-5.73-1.25-7.56,4.09-8.79,8.76-4.58-2.03-4.31-4.93-2.89-9.19,2.67-8.01-2.52-15.49-10.24-16.14-3.57-.3-5.89,1.1-5.35,4.62,.66,4.31-2.51,3.57-4.55,4.03-2.7,.6-3.64-.91-3.89-3.64-.42-4.68-4.5-5.49-8.03-5.99-3.66-.52-3.96,2.85-4.56,5.39-.53,2.25-.47,4.71-2.77,6.14-2.29-6.53-3.81-6.79-17.43-2.78-.05-2.63,.87-4.89,1.86-7.12,4.13-9.3-.31-15.68-10.67-15.02-2.64,.17-4.26,.96-4.6-3.09-.3-3.64-4.49-3.13-7.39-3.46-.96-.11-1.94-.02-3.48-.02,2.24-4.38,2.08-8.07-2.81-10.2-.29-.12-.74-.54-.7-.64,1.85-4.15-1.67-7.79-1.16-11.7,.89-6.82-.45-8.21-7.03-6.51-1.26,.33-2.54,.61-4.13,.98,0-4.25,.01-8.23,0-12.22-.03-6.5-1.67-7.5-7.72-4.76-.56,.25-1.24,.22-2.37,.41,1.18-3.52,1.31-6.82-.54-9.75-2.32-3.68-.55-6.07,2.53-7.52,4.09-1.92,5.57-4.85,3.88-8.82-1-2.33,.58-2.96,1.55-4.07,4.53-5.16,8.56-10.62,10.63-17.29,.29-.95,1.13-2.36,.78-2.78-5.02-6.04-.61-14.73-5.89-20.62-.56-.62-1.52-1.44-.89-2.08,3.67-3.71,3.47-8.96,5.52-13.29,1.34-2.83,3.12-5.37,.72-8.74-1.54-2.17,2.31-8.8,4.93-9.22,8.05-1.3,10.93-3.94,12.73-11.69,.15-.65,.24-1.31,.31-1.97,.57-4.89,1.91-8.47,8.26-7.15,2.39,.5,5.27-.59,7.76-1.44,3.82-1.31,7.21-2.42,11.4-.34,3.85,1.91,7.2-.49,9.15-5.26,1.56-3.82,8.09-7.56,12.28-6.99,3.54,.48,6.97,.01,10.32-1.14,6.5-2.23,8.03-5.28,5.96-11.79-1.46-4.6,3.26-11.2,8.14-11.38,9.24-.34,10-.91,13.25-9.67,1.15-3.11,2.53-6.14,3.58-9.28,.61-1.82,1.69-2.2,3.38-2.01,6.67,.76,13.27,.87,19.65-1.78,1.79-.74,3.09,.65,4.44,1.64,4.86,3.57,8.72,2.62,11.93-2.62,1.2-1.97,1.03-4.77,4.07-5.72,6.47-2.02,12.91-3.62,19.14,.27,2.49,1.55,4.85,2.1,7.5,1.14,3.13-1.13,5.76-1.83,9.06,.61,1.72,1.27,2.81,2.19,3.38,4.13,1.69,5.75,4.93,7.6,10.55,5.37,6.77-2.69,13.33-4.92,20.57-1.53,2.19,1.03,4.53-.19,6.67-1.22,3.15-1.52,5.43-1.72,8.57,1.41,4.2,4.2,9.38,8.13,16.45,4.64,3.48-1.71,8.53,1.51,9.71,5.5,1.92,6.47,7.52,9.55,13.53,6.69,4.15-1.98,5.31,1.68,6.41,3.28,3.22,4.72,6.35,9.33,11.38,12.33,1.26,.75,1.14,2.32,1.61,3.54,1.03,2.62,2.84,5.12,5.62,5.06,4.42-.09,5.5,2.68,6.68,5.86,4.1,11.1,8.43,9.79,17.61,9.22,3.72-.23,4.37-3.64,5.45-6.39,3.01-7.74,4.11-7.72,9.76-1.67,3.38,3.62,6.82,6.77,6.54,12.23-.07,1.41,1.04,2.51,2.34,2.98,6.41,2.31,12.72,5.21,19.33,6.48,3.38,.65,6.34,.66,9.17,3.18,2.28,2.03,2.61,3.96,2.09,6.54-.46,2.28-.9,4.57-1.27,6.87-.31,1.97,.17,4.4,2.13,4.47,5.1,.17,5.35,5.38,8.56,7.42,1.75,1.11,.1,2.24-.43,3.33-2.69,5.47-1,9.31,4.94,10.93,3.86,1.06,7.78,1.75,11.81,1.79,1.12,.01,3.09-.73,2.97,1.39-.08,1.5-1.08,2.45-3.11,2.21-3.14-.38-3.88,1.74-4.61,4.54-1.75,6.72,.9,11.56,5.58,15.83,1.83,1.67,3.1,2.94-.73,3.67-4.29,.81-5.29,3.54-3.53,7.42,.26,.57,.68,1.66,.63,1.68-3.62,1.72-7.3,4.72-10.94,4.68-6.18-.07-9.78,1.82-9.79,8.22,0,4.51-2.36,6.68-6.14,7.93-8.2,2.71-13.59,18.18-8.79,25.37,2.01,3.01,4.78,4.85,8.44,4.05,2.99-.66,3.46,.56,3.24,3.01-.19,2.12,.94,4.77-3.26,4.25-3.91-.49-7.75,.48-9.68,4.59-2.04,4.37,.24,7.71,2.97,10.79,3.74,4.23,5.24,7.56,6,14.3-5.88-2.31-7.62,1.21-8.3,6.33-3.4-2.16-3.22-7.22-7.17-8.12-4.87-1.12-5.85,2.47-6.57,6.63-2.88-1.58-5.5-3.18-8.26-4.49-4.24-2.02-6.79-.27-6.65,4.42,.04,1.16,.26,2.32,.32,3.48,.11,2.17,2.03,5.21-.45,6.3-3.32,1.45-7.18,2.07-10.36-1.41-3.25-3.56-6.88-6.78-10.32-10.17-1.6-1.57-3.34-3.12-5.68-2.07-2.01,.9-2.18-.07-2.86-1.57-1.5-3.3-4.02-3.71-6.9-1.59-3.26,2.39-5.87,5.27-7.74,8.96-2.54,5.03-10.51,8.42-15.8,7.29-1.5-.32-1.28-1.27-1.27-2.17,.02-3.45,.29-6.65,1.77-10.08,2.23-5.16,3.82-10.87,.49-16.57-2.14-3.65-4.53-4.15-7.62-1.45-1.37,1.19-3.15,2.4-3.69,3.96-2.75,7.9-4.9,16.08-2.81,24.41,.73,2.91-1.34,3.32-2.15,4.85-2.31,4.38-5.29,6.17-10.3,3.46-3.27-1.77-5.69,.46-7.27,3.34-1.32,2.41-2.51,4.89-3.82,7.46-1.58-1.39-1.01-3.99-3.11-4.56-2.8-.75-2.34-2.54-1.11-4,4.88-5.8,2.51-12.01,1.1-18.07-.72-3.1-8.74-6.74-11.68-5.8-1.83,.58-2.42,1.95-2.81,3.72-.35,1.6,1.46,4.45-2.1,4.48-3.48,.03-7.37,1.18-9.54-3.02-2.29-4.43-5.1-4.74-7.97-.7-4.14,5.83-8.01,11.86-12.2,17.65-5.03,6.95-6.57,14.65-6.14,23.1,1.22,24.21,7.25,47.66,10.69,71.5,1.83,12.72,6.44,22.92,18.03,28.44,14.09,6.7,28.67,12.41,44.41,14.2,1.04,1.18,3.49-1.02,3.92,1.63Z"/>
  <path class="cls-3" d="M851.35,736.15c0,.36,.01,.72,.02,1.07-1.16-.9-2.38-1.74-3.47-2.72-.71-.64-1.6-1.25-1.55-2.41q3.01-.06,5.01,4.05Z"/>
  <path class="cls-8" d="M487.88,752.75c.36,1.69,1.37,3.38-.31,4.7-.29,.23-1.5-.08-1.67-.44-1.06-2.19,1.31-2.79,1.98-4.26Z"/>
  <path class="cls-5" d="M735.25,913.17c-1.31-.54-2.61-1.08-3.92-1.63h7.75c.07,.19,.14,.37,.21,.56-1.35,.36-2.69,.71-4.04,1.07Z"/>
  <path class="cls-1" d="M472.47,760.56c-.45-.44-.89-.88-1.34-1.33,.76-.96,1.46-2.04,3.08-1.64,.11,1.43-.76,2.23-1.74,2.97Z"/>
  <ellipse class="cls-4" cx="668.34" cy="664.42" rx="661.84" ry="657.92"/>
</svg>