<?xml version="1.0" encoding="UTF-8"?>
<!DOCTYPE svg PUBLIC "-//W3C//DTD SVG 1.1//EN" "http://www.w3.org/Graphics/SVG/1.1/DTD/svg11.dtd">
<svg xmlns="http://www.w3.org/2000/svg" version="1.1" width="526px" height="526px" style="shape-rendering:geometricPrecision; text-rendering:geometricPrecision; image-rendering:optimizeQuality; fill-rule:evenodd; clip-rule:evenodd" xmlns:xlink="http://www.w3.org/1999/xlink">
<g><path style="opacity:0.82" fill="#0d773f" d="M 248.5,2.5 C 350.023,1.16799 428.523,42.5013 484,126.5C 523.01,193.249 532.01,263.916 511,338.5C 486.943,411.554 440.443,465.054 371.5,499C 310.33,525.794 247.663,529.794 183.5,511C 107.312,485.147 53.1452,435.313 21,361.5C -10.7735,276.471 -2.77352,195.471 45,118.5C 94.5108,48.1487 162.344,9.48206 248.5,2.5 Z M 250.5,7.5 C 342.754,6.7116 416.254,43.0449 471,116.5C 521.106,192.783 530.106,273.783 498,359.5C 460.399,443.909 396.232,495.409 305.5,514C 201.424,527.666 117.591,493.166 54,410.5C 4.56975,336.73 -5.76358,257.73 23,173.5C 53.3602,98.1398 106.86,46.9731 183.5,20C 205.493,13.2262 227.826,9.0595 250.5,7.5 Z M 247.5,38.5 C 326.462,36.0732 390.629,65.4065 440,126.5C 490.449,197.096 499.449,272.763 467,353.5C 429.579,430.885 368.079,475.051 282.5,486C 188.291,490.486 116.458,452.986 67,373.5C 28.4697,301.173 27.8031,228.506 65,155.5C 106.059,85.8745 166.893,46.8745 247.5,38.5 Z M 253.5,45.5 C 281.987,45.0256 309.654,49.5256 336.5,59C 330.752,60.4813 330.085,63.148 334.5,67C 365.099,79.278 391.599,97.4447 414,121.5C 424.578,134.98 433.911,149.314 442,164.5C 441.382,170.71 438.549,171.877 433.5,168C 412.925,134.758 386.258,107.424 353.5,86C 308.884,62.8715 262.217,57.5382 213.5,70C 192.524,77.3168 173.524,87.9835 156.5,102C 132.995,122.168 112.328,144.835 94.5,170C 93.1667,170.667 91.8333,170.667 90.5,170C 88.9121,165.135 89.7454,160.635 93,156.5C 117.116,119.714 148.283,90.5475 186.5,69C 188.774,67.2349 190.441,65.0682 191.5,62.5C 191.219,60.2216 189.885,59.0549 187.5,59C 209.004,51.3656 231.004,46.8656 253.5,45.5 Z M 182.5,61.5 C 188.168,61.1926 189.168,62.6926 185.5,66C 144.532,88.3004 112.032,119.467 88,159.5C 85.518,164.469 86.018,168.969 89.5,173C 92.8805,173.938 95.8805,173.271 98.5,171C 124.215,131.947 157.549,101.281 198.5,79C 224.757,67.9155 252.09,63.9155 280.5,67C 315.393,69.9557 346.393,82.289 373.5,104C 384.971,114.47 396.137,125.303 407,136.5C 415.468,148.601 424.301,160.435 433.5,172C 442.856,174.645 446.356,171.145 444,161.5C 420.559,116.061 385.059,83.8944 337.5,65C 336.833,64.3333 336.167,63.6667 335.5,63C 337.5,62.5 339.5,62 341.5,61.5C 396.484,83.9821 436.317,122.315 461,176.5C 471.779,201.066 477.446,226.733 478,253.5C 476.582,256.001 475.582,255.668 475,252.5C 472.71,233.676 468.377,215.342 462,197.5C 458.717,189.76 454.55,182.593 449.5,176C 445.845,173.665 442.679,174.165 440,177.5C 439.333,180.5 439.333,183.5 440,186.5C 460.672,229.243 463.672,273.243 449,318.5C 445.213,326.404 441.713,334.404 438.5,342.5C 438.976,346.641 441.309,348.641 445.5,348.5C 449.883,347.967 453.049,345.634 455,341.5C 459.255,332.404 462.921,323.071 466,313.5C 468.854,300.389 472.021,287.389 475.5,274.5C 476.877,276.289 477.877,278.289 478.5,280.5C 468.63,361.142 427.964,420.309 356.5,458C 351.148,461.205 345.482,462.038 339.5,460.5C 339.667,460.167 339.833,459.833 340,459.5C 353.756,451.04 367.256,442.206 380.5,433C 403.606,413.901 423.106,391.734 439,366.5C 441.583,361.945 441.917,357.278 440,352.5C 436.45,349.917 432.95,350.083 429.5,353C 407.876,384.957 381.209,411.957 349.5,434C 315,455.308 277.666,462.641 237.5,456C 207.761,452.121 181.095,441.121 157.5,423C 133.232,402.74 112.566,379.406 95.5,353C 84.9276,349.241 81.0943,352.741 84,363.5C 98.6464,392.932 119.48,417.099 146.5,436C 160.847,444.508 175.513,452.508 190.5,460C 191.167,460.667 191.833,461.333 192.5,462C 187.182,463.929 181.849,463.929 176.5,462C 100.204,425.999 56.5377,365.999 45.5,282C 46.4367,279.293 47.7701,276.793 49.5,274.5C 49.8333,275 50.1667,275.5 50.5,276C 53.9803,298.759 60.4803,320.592 70,341.5C 73.9085,349.063 79.2419,350.396 86,345.5C 86.6667,343.5 86.6667,341.5 86,339.5C 80.292,329.372 75.9586,318.706 73,307.5C 65.8179,278.731 65.4845,250.064 72,221.5C 76.2524,207.739 81.0857,194.239 86.5,181C 85.0691,175.197 81.7358,173.53 76.5,176C 65.0973,190.179 57.9306,206.345 55,224.5C 52.5683,235.091 50.5683,245.757 49,256.5C 46.1711,254.171 45.0045,251.171 45.5,247.5C 53.8838,168.84 92.2171,110.007 160.5,71C 167.674,67.1209 175.007,63.9542 182.5,61.5 Z M 253.5,87.5 C 294.704,86.9563 331.371,99.4563 363.5,125C 373.423,133.046 382.59,141.879 391,151.5C 395.117,161.708 392.284,164.875 382.5,161C 365.105,140.931 344.771,124.597 321.5,112C 265.699,88.1821 214.699,95.8487 168.5,135C 160.167,143.333 151.833,151.667 143.5,160C 137.394,160.718 135.894,158.218 139,152.5C 168.408,115.38 206.574,93.7135 253.5,87.5 Z M 262.5,119.5 C 294.099,120.638 321.766,131.471 345.5,152C 368.323,170.853 386.489,193.353 400,219.5C 402.103,224.143 403.603,228.976 404.5,234C 402.315,239.368 399.148,239.868 395,235.5C 377.365,195.866 349.865,165.032 312.5,143C 303.68,138.449 294.347,135.615 284.5,134.5C 281.741,134.542 279.075,135.042 276.5,136C 271.715,139.26 271.381,142.927 275.5,147C 292.352,150.761 307.685,157.761 321.5,168C 332.655,177.156 343.155,186.989 353,197.5C 357.246,202.991 361.246,208.658 365,214.5C 369.117,225.401 373.783,236.067 379,246.5C 383.322,252.122 389.156,254.789 396.5,254.5C 403.508,254.22 409.841,252.053 415.5,248C 418.781,243.959 420.448,239.292 420.5,234C 419.944,227.387 418.778,220.887 417,214.5C 410.79,201.242 403.956,188.408 396.5,176C 396.543,173.624 397.709,172.124 400,171.5C 402.39,172.278 404.557,173.445 406.5,175C 427.75,198.173 438.75,225.506 439.5,257C 440.316,294.892 428.65,328.226 404.5,357C 402.29,358.739 399.79,359.906 397,360.5C 394.646,359.644 393.146,357.977 392.5,355.5C 400.67,343.135 407.837,330.135 414,316.5C 418.959,305.305 421.626,293.639 422,281.5C 420.59,276.16 417.423,272.327 412.5,270C 403.971,266.404 395.637,266.738 387.5,271C 385.291,272.873 383.458,275.04 382,277.5C 370.98,313.49 349.814,341.657 318.5,362C 304.499,369.11 290.166,375.444 275.5,381C 271.446,385.426 271.779,389.426 276.5,393C 319.411,386.076 352.911,364.576 377,328.5C 383.372,314.924 389.872,301.424 396.5,288C 399.868,286.795 402.202,287.795 403.5,291C 389.893,340.275 359.56,374.942 312.5,395C 265.291,416.409 221.624,410.742 181.5,378C 163.8,363.307 148.633,346.474 136,327.5C 128.473,315.142 124.473,301.809 124,287.5C 125.133,285.789 126.633,285.289 128.5,286C 129.667,287.167 130.833,288.333 132,289.5C 147.229,330.148 173.396,361.648 210.5,384C 222.348,391.133 235.015,393.8 248.5,392C 253.31,388.645 253.644,384.979 249.5,381C 236.751,378.305 224.751,373.638 213.5,367C 197.18,356.685 182.68,344.185 170,329.5C 166.582,323.663 162.916,317.996 159,312.5C 154.722,301.668 150.056,291.001 145,280.5C 142.736,277.567 139.902,275.4 136.5,274C 106.903,271.29 97.0694,284.123 107,312.5C 112.638,325.113 119.305,337.113 127,348.5C 127.555,355.777 124.722,357.277 118.5,353C 89.9423,322.651 79.1089,286.817 86,245.5C 89.6458,217.39 100.479,192.556 118.5,171C 121.005,169.247 123.671,167.747 126.5,166.5C 129.167,167.167 130.833,168.833 131.5,171.5C 123.826,184.179 116.659,197.179 110,210.5C 105.041,221.695 102.374,233.361 102,245.5C 102.996,251.159 106.162,254.993 111.5,257C 119.51,260.261 127.51,260.261 135.5,257C 137.333,255.167 139.167,253.333 141,251.5C 147.862,230.44 157.862,211.106 171,193.5C 192.689,172.066 218.189,156.9 247.5,148C 251.212,145.487 252.378,141.987 251,137.5C 249.537,135.115 247.371,134.115 244.5,134.5C 202.014,143.47 169.181,166.136 146,202.5C 140.217,215.231 134.051,227.731 127.5,240C 124.143,241.141 122.143,239.975 121.5,236.5C 136.172,185.996 167.839,150.829 216.5,131C 231.272,124.307 246.605,120.474 262.5,119.5 Z M 335.5,290.5 C 337.022,289.809 338.022,288.642 338.5,287C 337.633,283.895 337.299,280.728 337.5,277.5C 335.669,278.052 334.003,278.052 332.5,277.5C 334.304,276.232 336.304,275.565 338.5,275.5C 338.297,273.61 338.963,272.11 340.5,271C 340.167,270.667 339.833,270.333 339.5,270C 341.706,268.193 344.039,267.693 346.5,268.5C 347.5,265.5 348.5,262.5 349.5,259.5C 348.452,256.016 348.785,252.516 350.5,249C 350.241,247.739 349.574,246.739 348.5,246C 346.285,245.83 344.285,245.163 342.5,244C 342.957,243.586 343.291,243.086 343.5,242.5C 340.44,239.047 338.44,235.047 337.5,230.5C 334.238,228.166 330.572,226.666 326.5,226C 324.76,220.583 321.093,217.916 315.5,218C 314.687,219.803 313.52,221.303 312,222.5C 308.841,218.402 305.174,214.735 301,211.5C 299.847,206.252 297.18,204.918 293,207.5C 292.274,204.54 290.44,202.54 287.5,201.5C 286.554,201.987 285.554,202.32 284.5,202.5C 282.677,201.246 280.677,200.246 278.5,199.5C 274.183,199.71 269.849,200.043 265.5,200.5C 263.936,199.231 262.269,198.064 260.5,197C 255.947,197.439 251.613,196.273 247.5,193.5C 245.5,194.833 243.833,196.5 242.5,198.5C 237.167,199.5 231.833,200.5 226.5,201.5C 225.764,203.541 224.931,205.541 224,207.5C 222.266,208.249 220.433,208.749 218.5,209C 216.959,211.916 215.293,214.749 213.5,217.5C 208.906,215.896 206.072,217.563 205,222.5C 204.275,221.941 203.442,221.608 202.5,221.5C 199.245,222.641 195.911,223.474 192.5,224C 191.475,226.071 190.642,228.238 190,230.5C 188.333,231.167 186.667,231.833 185,232.5C 184.296,237.527 182.796,242.36 180.5,247C 180.95,248.285 181.617,249.452 182.5,250.5C 182.257,252.955 182.257,255.455 182.5,258C 176.964,263.531 174.797,270.031 176,277.5C 176.953,279.592 178.286,279.925 180,278.5C 180.495,280.473 180.662,282.473 180.5,284.5C 181.833,284.5 183.167,284.5 184.5,284.5C 184.998,287.681 184.165,290.347 182,292.5C 180.097,298.253 181.93,300.419 187.5,299C 186.241,301.672 186.908,303.839 189.5,305.5C 192.091,303.719 194.425,301.719 196.5,299.5C 195.908,302.127 195.575,304.794 195.5,307.5C 197.262,307.643 198.929,307.309 200.5,306.5C 203.371,309.113 206.205,309.113 209,306.5C 212.08,306.969 215.246,307.135 218.5,307C 216.734,311.035 217.901,313.868 222,315.5C 225.719,312.171 229.386,308.838 233,305.5C 233.044,303.24 232.211,301.24 230.5,299.5C 230.808,298.692 231.308,298.025 232,297.5C 235.071,298.138 238.237,298.138 241.5,297.5C 241.148,300.073 241.648,302.406 243,304.5C 244.314,303.687 245.481,302.687 246.5,301.5C 247.493,304.493 249.493,306.493 252.5,307.5C 252.833,309.167 253.167,310.833 253.5,312.5C 252.615,324.4 251.615,336.233 250.5,348C 238.669,357.182 226.336,358.182 213.5,351C 170.478,323.433 154.645,284.6 166,234.5C 184.894,183.981 221.394,160.481 275.5,164C 320.276,172.302 348.443,198.469 360,242.5C 366.992,287.002 352.158,322.169 315.5,348C 301.315,357.302 286.648,357.969 271.5,350C 270.333,348.833 269.167,347.667 268,346.5C 264.914,334.325 263.248,321.992 263,309.5C 264.421,306.991 266.088,304.657 268,302.5C 271.058,302.763 274.225,302.93 277.5,303C 275.64,307.403 276.64,310.903 280.5,313.5C 282.5,312.833 283.833,311.5 284.5,309.5C 287.217,309.001 289.551,307.835 291.5,306C 294.877,305.548 298.211,304.882 301.5,304C 302.98,301.332 304.48,301.165 306,303.5C 307.085,302.707 308.252,302.04 309.5,301.5C 311.359,303.192 313.359,304.692 315.5,306C 316.899,306.595 318.232,306.428 319.5,305.5C 322.565,307.25 325.898,308.25 329.5,308.5C 329.351,307.448 329.517,306.448 330,305.5C 330.893,306.711 331.726,306.711 332.5,305.5C 333.137,302.893 334.304,300.56 336,298.5C 336.722,295.739 336.555,293.073 335.5,290.5 Z M 78.5,177.5 C 81.3213,177.316 82.9879,178.649 83.5,181.5C 61.7123,226.824 58.5456,273.49 74,321.5C 77.1695,328.505 80.3361,335.505 83.5,342.5C 83.119,344.707 81.7857,346.04 79.5,346.5C 76.5302,345.363 74.3635,343.363 73,340.5C 63.0806,319.16 56.414,296.826 53,273.5C 50.7152,269.534 48.3819,269.534 46,273.5C 45.1711,268.467 45.3377,263.467 46.5,258.5C 48.6439,259.953 50.4773,259.62 52,257.5C 54.7555,233.474 61.0888,210.474 71,188.5C 73.51,184.805 76.01,181.138 78.5,177.5 Z M 443.5,177.5 C 445.903,177.393 447.736,178.393 449,180.5C 458.657,195.128 464.99,211.128 468,228.5C 470.098,237.757 471.765,247.09 473,256.5C 473.879,259.346 475.546,260.013 478,258.5C 478.667,263.167 478.667,267.833 478,272.5C 475.679,269.967 473.679,270.301 472,273.5C 468.87,292.69 463.87,311.356 457,329.5C 455.194,334.446 452.861,339.112 450,343.5C 447.847,345.444 445.347,345.944 442.5,345C 441.941,344.275 441.608,343.442 441.5,342.5C 446.492,332.849 450.658,322.849 454,312.5C 461.194,283.681 462.194,254.681 457,225.5C 453.247,210.329 448.08,195.662 441.5,181.5C 442.18,180.14 442.847,178.807 443.5,177.5 Z M 248.5,198.5 C 250.954,198.321 253.121,198.987 255,200.5C 256.465,199.67 257.965,199.504 259.5,200C 260.833,201.733 262.333,203.233 264,204.5C 266,203.833 268,203.167 270,202.5C 272.333,203.833 274.667,203.833 277,202.5C 279.988,205.231 283.321,205.898 287,204.5C 288.849,206.047 290.349,207.881 291.5,210C 293.112,210.72 294.612,210.554 296,209.5C 300.178,215.079 304.678,220.246 309.5,225C 311.579,225.808 313.579,225.641 315.5,224.5C 316.083,222.998 316.916,221.665 318,220.5C 320.934,222.203 322.767,224.703 323.5,228C 326.648,229.605 329.981,230.605 333.5,231C 334.83,235.139 336.83,238.972 339.5,242.5C 338.572,243.768 338.405,245.101 339,246.5C 341.447,247.406 343.947,248.239 346.5,249C 344.354,249.479 343.354,250.812 343.5,253C 344.285,254.951 345.285,256.785 346.5,258.5C 344.995,259.842 344.328,261.508 344.5,263.5C 342.146,263.838 339.813,264.338 337.5,265C 336.872,268.967 334.705,271.801 331,273.5C 328.9,276.303 329.066,278.97 331.5,281.5C 332.72,282.711 333.887,282.711 335,281.5C 335.49,282.793 335.657,284.127 335.5,285.5C 332.712,285.077 330.712,286.077 329.5,288.5C 330.936,290.514 332.27,292.514 333.5,294.5C 332.231,296.064 331.064,297.731 330,299.5C 328.678,296.112 326.845,295.779 324.5,298.5C 320.332,295.674 318.665,297.008 319.5,302.5C 316.033,302.554 313.366,301.054 311.5,298C 309.485,297.576 307.651,296.742 306,295.5C 303.618,296.744 301.785,298.577 300.5,301C 298.655,302.128 296.655,302.628 294.5,302.5C 295.306,299.715 295.972,296.881 296.5,294C 295.537,288.194 293.704,288.027 291,293.5C 290.667,296.833 290.333,300.167 290,303.5C 289.311,304.357 288.478,305.023 287.5,305.5C 283.814,303.981 281.647,305.314 281,309.5C 280.362,308.391 279.862,307.225 279.5,306C 280.493,303.547 280.66,301.047 280,298.5C 278.556,296.845 276.722,296.178 274.5,296.5C 274.5,297.5 274.5,298.5 274.5,299.5C 272.088,299.669 269.921,299.003 268,297.5C 259.514,305.153 257.18,314.486 261,325.5C 262.333,332.833 263.667,340.167 265,347.5C 266.167,350 268,351.833 270.5,353C 276.921,355.807 283.588,357.807 290.5,359C 271.52,364.914 252.52,364.914 233.5,359C 240.741,357.296 247.241,354.129 253,349.5C 255.318,334.226 255.818,318.893 254.5,303.5C 253.914,303.709 253.414,304.043 253,304.5C 251.167,302 249.333,299.5 247.5,297C 246.551,296.383 245.718,296.549 245,297.5C 244.517,296.552 244.351,295.552 244.5,294.5C 241.091,294.249 237.758,294.583 234.5,295.5C 233.5,294.833 232.5,294.167 231.5,293.5C 229.504,295.499 227.171,296.999 224.5,298C 225.212,300.881 226.878,303.048 229.5,304.5C 228.119,306.691 226.119,308.024 223.5,308.5C 223,309.5 222.5,310.5 222,311.5C 221.28,308.604 220.78,305.604 220.5,302.5C 219.15,301.05 217.484,300.383 215.5,300.5C 215.778,302.346 215.111,303.68 213.5,304.5C 210.176,298.888 207.676,299.222 206,305.5C 204.715,302.196 202.548,301.53 199.5,303.5C 202.26,297.154 200.26,294.488 193.5,295.5C 193.5,294.5 193.5,293.5 193.5,292.5C 192.127,292.657 190.793,292.49 189.5,292C 190.791,289.91 190.124,288.576 187.5,288C 187.957,287.586 188.291,287.086 188.5,286.5C 187.846,284.885 187.346,283.218 187,281.5C 186.259,280.359 185.425,280.359 184.5,281.5C 183.526,279.257 183.192,276.924 183.5,274.5C 182.167,274.5 180.833,274.5 179.5,274.5C 179.714,272.856 179.38,271.356 178.5,270C 181.107,265.37 183.774,260.703 186.5,256C 185.879,252.814 185.212,249.648 184.5,246.5C 185.761,242.939 186.594,239.272 187,235.5C 191.889,233.944 194.556,230.611 195,225.5C 198.283,225.359 201.616,225.359 205,225.5C 207.137,224.362 208.971,222.862 210.5,221C 212.833,220.667 215.167,220.333 217.5,220C 218.983,217.619 219.816,215.119 220,212.5C 221.916,211.072 224.083,210.072 226.5,209.5C 227.946,207.382 228.613,205.049 228.5,202.5C 232.879,202.292 237.213,202.625 241.5,203.5C 243.639,201.549 245.972,199.883 248.5,198.5 Z M 192.5,296.5 C 193.773,297.077 193.773,297.743 192.5,298.5C 191.537,298.03 191.537,297.363 192.5,296.5 Z M 89.5,353.5 C 92.0752,354.568 94.2419,356.235 96,358.5C 115.702,389.203 140.535,415.036 170.5,436C 213.614,459.731 259.28,466.397 307.5,456C 335.042,447.432 359.375,433.432 380.5,414C 400.283,395.69 417.95,375.69 433.5,354C 436.588,353.412 438.255,354.745 438.5,358C 438.066,360.634 437.233,363.134 436,365.5C 412.207,403.295 380.707,432.795 341.5,454C 339.226,455.765 337.559,457.932 336.5,460.5C 336.876,462.383 337.876,463.883 339.5,465C 289.746,483.558 239.746,484.225 189.5,467C 189.167,466.667 188.833,466.333 188.5,466C 194.693,466.025 196.359,463.525 193.5,458.5C 182.817,452.157 171.817,446.324 160.5,441C 128.028,421.196 103.195,394.363 86,360.5C 85.0694,357.027 86.2361,354.694 89.5,353.5 Z M 135.5,364.5 C 137.989,364.298 140.323,364.798 142.5,366C 150.833,374.333 159.167,382.667 167.5,391C 212.35,430.309 262.683,439.309 318.5,418C 342.518,405.981 363.184,389.648 380.5,369C 383.092,366.543 385.592,366.376 388,368.5C 388.167,369.333 388.333,370.167 388.5,371C 363.814,406.533 330.148,428.867 287.5,438C 244.081,443.97 204.747,433.97 169.5,408C 157.435,398.941 146.269,388.774 136,377.5C 133.011,373.154 132.845,368.821 135.5,364.5 Z"/></g>
<g><path style="opacity:0.786" fill="#0d773f" d="M 244.5,34.5 C 341.083,31.5258 413.916,71.1924 463,153.5C 500.24,227.841 499.573,301.841 461,375.5C 415.755,449.645 349.422,488.311 262,491.5C 175.506,488.277 109.506,450.277 64,377.5C 24.0805,302.505 23.4138,227.172 62,151.5C 103.342,82.3953 164.175,43.3953 244.5,34.5 Z M 247.5,38.5 C 166.893,46.8745 106.059,85.8745 65,155.5C 27.8031,228.506 28.4697,301.173 67,373.5C 116.458,452.986 188.291,490.486 282.5,486C 368.079,475.051 429.579,430.885 467,353.5C 499.449,272.763 490.449,197.096 440,126.5C 390.629,65.4065 326.462,36.0732 247.5,38.5 Z M 253.5,45.5 C 231.004,46.8656 209.004,51.3656 187.5,59C 189.885,59.0549 191.219,60.2216 191.5,62.5C 190.441,65.0682 188.774,67.2349 186.5,69C 148.283,90.5475 117.116,119.714 93,156.5C 89.7454,160.635 88.9121,165.135 90.5,170C 91.8333,170.667 93.1667,170.667 94.5,170C 112.328,144.835 132.995,122.168 156.5,102C 173.524,87.9835 192.524,77.3168 213.5,70C 262.217,57.5382 308.884,62.8715 353.5,86C 386.258,107.424 412.925,134.758 433.5,168C 438.549,171.877 441.382,170.71 442,164.5C 433.911,149.314 424.578,134.98 414,121.5C 391.599,97.4447 365.099,79.278 334.5,67C 330.085,63.148 330.752,60.4813 336.5,59C 309.654,49.5256 281.987,45.0256 253.5,45.5 Z M 182.5,61.5 C 175.007,63.9542 167.674,67.1209 160.5,71C 92.2171,110.007 53.8838,168.84 45.5,247.5C 45.0045,251.171 46.1711,254.171 49,256.5C 50.5683,245.757 52.5683,235.091 55,224.5C 57.9306,206.345 65.0973,190.179 76.5,176C 81.7358,173.53 85.0691,175.197 86.5,181C 81.0857,194.239 76.2524,207.739 72,221.5C 65.4845,250.064 65.8179,278.731 73,307.5C 75.9586,318.706 80.292,329.372 86,339.5C 86.6667,341.5 86.6667,343.5 86,345.5C 79.2419,350.396 73.9085,349.063 70,341.5C 60.4803,320.592 53.9803,298.759 50.5,276C 50.1667,275.5 49.8333,275 49.5,274.5C 47.7701,276.793 46.4367,279.293 45.5,282C 56.5377,365.999 100.204,425.999 176.5,462C 181.849,463.929 187.182,463.929 192.5,462C 191.833,461.333 191.167,460.667 190.5,460C 175.513,452.508 160.847,444.508 146.5,436C 119.48,417.099 98.6464,392.932 84,363.5C 81.0943,352.741 84.9276,349.241 95.5,353C 112.566,379.406 133.232,402.74 157.5,423C 181.095,441.121 207.761,452.121 237.5,456C 277.666,462.641 315,455.308 349.5,434C 381.209,411.957 407.876,384.957 429.5,353C 432.95,350.083 436.45,349.917 440,352.5C 441.917,357.278 441.583,361.945 439,366.5C 423.106,391.734 403.606,413.901 380.5,433C 367.256,442.206 353.756,451.04 340,459.5C 339.833,459.833 339.667,460.167 339.5,460.5C 345.482,462.038 351.148,461.205 356.5,458C 427.964,420.309 468.63,361.142 478.5,280.5C 477.877,278.289 476.877,276.289 475.5,274.5C 472.021,287.389 468.854,300.389 466,313.5C 462.921,323.071 459.255,332.404 455,341.5C 453.049,345.634 449.883,347.967 445.5,348.5C 441.309,348.641 438.976,346.641 438.5,342.5C 441.713,334.404 445.213,326.404 449,318.5C 463.672,273.243 460.672,229.243 440,186.5C 439.333,183.5 439.333,180.5 440,177.5C 442.679,174.165 445.845,173.665 449.5,176C 454.55,182.593 458.717,189.76 462,197.5C 468.377,215.342 472.71,233.676 475,252.5C 475.582,255.668 476.582,256.001 478,253.5C 477.446,226.733 471.779,201.066 461,176.5C 436.317,122.315 396.484,83.9821 341.5,61.5C 339.5,62 337.5,62.5 335.5,63C 336.167,63.6667 336.833,64.3333 337.5,65C 385.059,83.8944 420.559,116.061 444,161.5C 446.356,171.145 442.856,174.645 433.5,172C 424.301,160.435 415.468,148.601 407,136.5C 396.137,125.303 384.971,114.47 373.5,104C 346.393,82.289 315.393,69.9557 280.5,67C 252.09,63.9155 224.757,67.9155 198.5,79C 157.549,101.281 124.215,131.947 98.5,171C 95.8805,173.271 92.8805,173.938 89.5,173C 86.018,168.969 85.518,164.469 88,159.5C 112.032,119.467 144.532,88.3004 185.5,66C 189.168,62.6926 188.168,61.1926 182.5,61.5 Z M 253.5,87.5 C 206.574,93.7135 168.408,115.38 139,152.5C 135.894,158.218 137.394,160.718 143.5,160C 151.833,151.667 160.167,143.333 168.5,135C 214.699,95.8487 265.699,88.1821 321.5,112C 344.771,124.597 365.105,140.931 382.5,161C 392.284,164.875 395.117,161.708 391,151.5C 382.59,141.879 373.423,133.046 363.5,125C 331.371,99.4563 294.704,86.9563 253.5,87.5 Z M 262.5,119.5 C 246.605,120.474 231.272,124.307 216.5,131C 167.839,150.829 136.172,185.996 121.5,236.5C 122.143,239.975 124.143,241.141 127.5,240C 134.051,227.731 140.217,215.231 146,202.5C 169.181,166.136 202.014,143.47 244.5,134.5C 247.371,134.115 249.537,135.115 251,137.5C 252.378,141.987 251.212,145.487 247.5,148C 218.189,156.9 192.689,172.066 171,193.5C 157.862,211.106 147.862,230.44 141,251.5C 139.167,253.333 137.333,255.167 135.5,257C 127.51,260.261 119.51,260.261 111.5,257C 106.162,254.993 102.996,251.159 102,245.5C 102.374,233.361 105.041,221.695 110,210.5C 116.659,197.179 123.826,184.179 131.5,171.5C 130.833,168.833 129.167,167.167 126.5,166.5C 123.671,167.747 121.005,169.247 118.5,171C 100.479,192.556 89.6458,217.39 86,245.5C 79.1089,286.817 89.9423,322.651 118.5,353C 124.722,357.277 127.555,355.777 127,348.5C 119.305,337.113 112.638,325.113 107,312.5C 97.0694,284.123 106.903,271.29 136.5,274C 139.902,275.4 142.736,277.567 145,280.5C 150.056,291.001 154.722,301.668 159,312.5C 162.916,317.996 166.582,323.663 170,329.5C 182.68,344.185 197.18,356.685 213.5,367C 224.751,373.638 236.751,378.305 249.5,381C 253.644,384.979 253.31,388.645 248.5,392C 235.015,393.8 222.348,391.133 210.5,384C 173.396,361.648 147.229,330.148 132,289.5C 130.833,288.333 129.667,287.167 128.5,286C 126.633,285.289 125.133,285.789 124,287.5C 124.473,301.809 128.473,315.142 136,327.5C 148.633,346.474 163.8,363.307 181.5,378C 221.624,410.742 265.291,416.409 312.5,395C 359.56,374.942 389.893,340.275 403.5,291C 402.202,287.795 399.868,286.795 396.5,288C 389.872,301.424 383.372,314.924 377,328.5C 352.911,364.576 319.411,386.076 276.5,393C 271.779,389.426 271.446,385.426 275.5,381C 290.166,375.444 304.499,369.11 318.5,362C 349.814,341.657 370.98,313.49 382,277.5C 383.458,275.04 385.291,272.873 387.5,271C 395.637,266.738 403.971,266.404 412.5,270C 417.423,272.327 420.59,276.16 422,281.5C 421.626,293.639 418.959,305.305 414,316.5C 407.837,330.135 400.67,343.135 392.5,355.5C 393.146,357.977 394.646,359.644 397,360.5C 399.79,359.906 402.29,358.739 404.5,357C 428.65,328.226 440.316,294.892 439.5,257C 438.75,225.506 427.75,198.173 406.5,175C 404.557,173.445 402.39,172.278 400,171.5C 397.709,172.124 396.543,173.624 396.5,176C 403.956,188.408 410.79,201.242 417,214.5C 418.778,220.887 419.944,227.387 420.5,234C 420.448,239.292 418.781,243.959 415.5,248C 409.841,252.053 403.508,254.22 396.5,254.5C 389.156,254.789 383.322,252.122 379,246.5C 373.783,236.067 369.117,225.401 365,214.5C 361.246,208.658 357.246,202.991 353,197.5C 343.155,186.989 332.655,177.156 321.5,168C 307.685,157.761 292.352,150.761 275.5,147C 271.381,142.927 271.715,139.26 276.5,136C 279.075,135.042 281.741,134.542 284.5,134.5C 294.347,135.615 303.68,138.449 312.5,143C 349.865,165.032 377.365,195.866 395,235.5C 399.148,239.868 402.315,239.368 404.5,234C 403.603,228.976 402.103,224.143 400,219.5C 386.489,193.353 368.323,170.853 345.5,152C 321.766,131.471 294.099,120.638 262.5,119.5 Z M 335.5,290.5 C 337.022,289.809 338.022,288.642 338.5,287C 337.633,283.895 337.299,280.728 337.5,277.5C 335.669,278.052 334.003,278.052 332.5,277.5C 334.304,276.232 336.304,275.565 338.5,275.5C 338.297,273.61 338.963,272.11 340.5,271C 340.167,270.667 339.833,270.333 339.5,270C 341.706,268.193 344.039,267.693 346.5,268.5C 347.5,265.5 348.5,262.5 349.5,259.5C 348.452,256.016 348.785,252.516 350.5,249C 350.241,247.739 349.574,246.739 348.5,246C 346.285,245.83 344.285,245.163 342.5,244C 342.957,243.586 343.291,243.086 343.5,242.5C 340.44,239.047 338.44,235.047 337.5,230.5C 334.238,228.166 330.572,226.666 326.5,226C 324.76,220.583 321.093,217.916 315.5,218C 314.687,219.803 313.52,221.303 312,222.5C 308.841,218.402 305.174,214.735 301,211.5C 299.847,206.252 297.18,204.918 293,207.5C 292.274,204.54 290.44,202.54 287.5,201.5C 286.554,201.987 285.554,202.32 284.5,202.5C 282.677,201.246 280.677,200.246 278.5,199.5C 274.183,199.71 269.849,200.043 265.5,200.5C 263.936,199.231 262.269,198.064 260.5,197C 255.947,197.439 251.613,196.273 247.5,193.5C 245.5,194.833 243.833,196.5 242.5,198.5C 237.167,199.5 231.833,200.5 226.5,201.5C 225.764,203.541 224.931,205.541 224,207.5C 222.266,208.249 220.433,208.749 218.5,209C 216.959,211.916 215.293,214.749 213.5,217.5C 208.906,215.896 206.072,217.563 205,222.5C 204.275,221.941 203.442,221.608 202.5,221.5C 199.245,222.641 195.911,223.474 192.5,224C 191.475,226.071 190.642,228.238 190,230.5C 188.333,231.167 186.667,231.833 185,232.5C 184.296,237.527 182.796,242.36 180.5,247C 180.95,248.285 181.617,249.452 182.5,250.5C 182.257,252.955 182.257,255.455 182.5,258C 176.964,263.531 174.797,270.031 176,277.5C 176.953,279.592 178.286,279.925 180,278.5C 180.495,280.473 180.662,282.473 180.5,284.5C 181.833,284.5 183.167,284.5 184.5,284.5C 184.998,287.681 184.165,290.347 182,292.5C 180.097,298.253 181.93,300.419 187.5,299C 186.241,301.672 186.908,303.839 189.5,305.5C 192.091,303.719 194.425,301.719 196.5,299.5C 195.908,302.127 195.575,304.794 195.5,307.5C 197.262,307.643 198.929,307.309 200.5,306.5C 203.371,309.113 206.205,309.113 209,306.5C 212.08,306.969 215.246,307.135 218.5,307C 216.734,311.035 217.901,313.868 222,315.5C 225.719,312.171 229.386,308.838 233,305.5C 233.044,303.24 232.211,301.24 230.5,299.5C 230.808,298.692 231.308,298.025 232,297.5C 235.071,298.138 238.237,298.138 241.5,297.5C 241.148,300.073 241.648,302.406 243,304.5C 244.314,303.687 245.481,302.687 246.5,301.5C 247.493,304.493 249.493,306.493 252.5,307.5C 252.833,309.167 253.167,310.833 253.5,312.5C 252.615,324.4 251.615,336.233 250.5,348C 238.669,357.182 226.336,358.182 213.5,351C 170.478,323.433 154.645,284.6 166,234.5C 184.894,183.981 221.394,160.481 275.5,164C 320.276,172.302 348.443,198.469 360,242.5C 366.992,287.002 352.158,322.169 315.5,348C 301.315,357.302 286.648,357.969 271.5,350C 270.333,348.833 269.167,347.667 268,346.5C 264.914,334.325 263.248,321.992 263,309.5C 264.421,306.991 266.088,304.657 268,302.5C 271.058,302.763 274.225,302.93 277.5,303C 275.64,307.403 276.64,310.903 280.5,313.5C 282.5,312.833 283.833,311.5 284.5,309.5C 287.217,309.001 289.551,307.835 291.5,306C 294.877,305.548 298.211,304.882 301.5,304C 302.98,301.332 304.48,301.165 306,303.5C 307.085,302.707 308.252,302.04 309.5,301.5C 311.359,303.192 313.359,304.692 315.5,306C 316.899,306.595 318.232,306.428 319.5,305.5C 322.565,307.25 325.898,308.25 329.5,308.5C 329.351,307.448 329.517,306.448 330,305.5C 330.893,306.711 331.726,306.711 332.5,305.5C 333.137,302.893 334.304,300.56 336,298.5C 336.722,295.739 336.555,293.073 335.5,290.5 Z M 78.5,177.5 C 76.01,181.138 73.51,184.805 71,188.5C 61.0888,210.474 54.7555,233.474 52,257.5C 50.4773,259.62 48.6439,259.953 46.5,258.5C 45.3377,263.467 45.1711,268.467 46,273.5C 48.3819,269.534 50.7152,269.534 53,273.5C 56.414,296.826 63.0806,319.16 73,340.5C 74.3635,343.363 76.5302,345.363 79.5,346.5C 81.7857,346.04 83.119,344.707 83.5,342.5C 80.3361,335.505 77.1695,328.505 74,321.5C 58.5456,273.49 61.7123,226.824 83.5,181.5C 82.9879,178.649 81.3213,177.316 78.5,177.5 Z M 443.5,177.5 C 442.847,178.807 442.18,180.14 441.5,181.5C 448.08,195.662 453.247,210.329 457,225.5C 462.194,254.681 461.194,283.681 454,312.5C 450.658,322.849 446.492,332.849 441.5,342.5C 441.608,343.442 441.941,344.275 442.5,345C 445.347,345.944 447.847,345.444 450,343.5C 452.861,339.112 455.194,334.446 457,329.5C 463.87,311.356 468.87,292.69 472,273.5C 473.679,270.301 475.679,269.967 478,272.5C 478.667,267.833 478.667,263.167 478,258.5C 475.546,260.013 473.879,259.346 473,256.5C 471.765,247.09 470.098,237.757 468,228.5C 464.99,211.128 458.657,195.128 449,180.5C 447.736,178.393 445.903,177.393 443.5,177.5 Z M 248.5,198.5 C 245.972,199.883 243.639,201.549 241.5,203.5C 237.213,202.625 232.879,202.292 228.5,202.5C 228.613,205.049 227.946,207.382 226.5,209.5C 224.083,210.072 221.916,211.072 220,212.5C 219.816,215.119 218.983,217.619 217.5,220C 215.167,220.333 212.833,220.667 210.5,221C 208.971,222.862 207.137,224.362 205,225.5C 201.616,225.359 198.283,225.359 195,225.5C 194.556,230.611 191.889,233.944 187,235.5C 186.594,239.272 185.761,242.939 184.5,246.5C 185.212,249.648 185.879,252.814 186.5,256C 183.774,260.703 181.107,265.37 178.5,270C 179.38,271.356 179.714,272.856 179.5,274.5C 180.833,274.5 182.167,274.5 183.5,274.5C 183.192,276.924 183.526,279.257 184.5,281.5C 185.425,280.359 186.259,280.359 187,281.5C 187.346,283.218 187.846,284.885 188.5,286.5C 188.291,287.086 187.957,287.586 187.5,288C 190.124,288.576 190.791,289.91 189.5,292C 190.793,292.49 192.127,292.657 193.5,292.5C 193.5,293.5 193.5,294.5 193.5,295.5C 200.26,294.488 202.26,297.154 199.5,303.5C 202.548,301.53 204.715,302.196 206,305.5C 207.676,299.222 210.176,298.888 213.5,304.5C 215.111,303.68 215.778,302.346 215.5,300.5C 217.484,300.383 219.15,301.05 220.5,302.5C 220.78,305.604 221.28,308.604 222,311.5C 222.5,310.5 223,309.5 223.5,308.5C 226.119,308.024 228.119,306.691 229.5,304.5C 226.878,303.048 225.212,300.881 224.5,298C 227.171,296.999 229.504,295.499 231.5,293.5C 232.5,294.167 233.5,294.833 234.5,295.5C 237.758,294.583 241.091,294.249 244.5,294.5C 244.351,295.552 244.517,296.552 245,297.5C 245.718,296.549 246.551,296.383 247.5,297C 249.333,299.5 251.167,302 253,304.5C 253.414,304.043 253.914,303.709 254.5,303.5C 255.818,318.893 255.318,334.226 253,349.5C 247.241,354.129 240.741,357.296 233.5,359C 252.52,364.914 271.52,364.914 290.5,359C 283.588,357.807 276.921,355.807 270.5,353C 268,351.833 266.167,350 265,347.5C 263.667,340.167 262.333,332.833 261,325.5C 257.18,314.486 259.514,305.153 268,297.5C 269.921,299.003 272.088,299.669 274.5,299.5C 274.5,298.5 274.5,297.5 274.5,296.5C 276.722,296.178 278.556,296.845 280,298.5C 280.66,301.047 280.493,303.547 279.5,306C 279.862,307.225 280.362,308.391 281,309.5C 281.647,305.314 283.814,303.981 287.5,305.5C 288.478,305.023 289.311,304.357 290,303.5C 290.333,300.167 290.667,296.833 291,293.5C 293.704,288.027 295.537,288.194 296.5,294C 295.972,296.881 295.306,299.715 294.5,302.5C 296.655,302.628 298.655,302.128 300.5,301C 301.785,298.577 303.618,296.744 306,295.5C 307.651,296.742 309.485,297.576 311.5,298C 313.366,301.054 316.033,302.554 319.5,302.5C 318.665,297.008 320.332,295.674 324.5,298.5C 326.845,295.779 328.678,296.112 330,299.5C 331.064,297.731 332.231,296.064 333.5,294.5C 332.27,292.514 330.936,290.514 329.5,288.5C 330.712,286.077 332.712,285.077 335.5,285.5C 335.657,284.127 335.49,282.793 335,281.5C 333.887,282.711 332.72,282.711 331.5,281.5C 329.066,278.97 328.9,276.303 331,273.5C 334.705,271.801 336.872,268.967 337.5,265C 339.813,264.338 342.146,263.838 344.5,263.5C 344.328,261.508 344.995,259.842 346.5,258.5C 345.285,256.785 344.285,254.951 343.5,253C 343.354,250.812 344.354,249.479 346.5,249C 343.947,248.239 341.447,247.406 339,246.5C 338.405,245.101 338.572,243.768 339.5,242.5C 336.83,238.972 334.83,235.139 333.5,231C 329.981,230.605 326.648,229.605 323.5,228C 322.767,224.703 320.934,222.203 318,220.5C 316.916,221.665 316.083,222.998 315.5,224.5C 313.579,225.641 311.579,225.808 309.5,225C 304.678,220.246 300.178,215.079 296,209.5C 294.612,210.554 293.112,210.72 291.5,210C 290.349,207.881 288.849,206.047 287,204.5C 283.321,205.898 279.988,205.231 277,202.5C 274.667,203.833 272.333,203.833 270,202.5C 268,203.167 266,203.833 264,204.5C 262.333,203.233 260.833,201.733 259.5,200C 257.965,199.504 256.465,199.67 255,200.5C 253.121,198.987 250.954,198.321 248.5,198.5 Z M 192.5,296.5 C 191.537,297.363 191.537,298.03 192.5,298.5C 193.773,297.743 193.773,297.077 192.5,296.5 Z M 89.5,353.5 C 86.2361,354.694 85.0694,357.027 86,360.5C 103.195,394.363 128.028,421.196 160.5,441C 171.817,446.324 182.817,452.157 193.5,458.5C 196.359,463.525 194.693,466.025 188.5,466C 188.833,466.333 189.167,466.667 189.5,467C 239.746,484.225 289.746,483.558 339.5,465C 337.876,463.883 336.876,462.383 336.5,460.5C 337.559,457.932 339.226,455.765 341.5,454C 380.707,432.795 412.207,403.295 436,365.5C 437.233,363.134 438.066,360.634 438.5,358C 438.255,354.745 436.588,353.412 433.5,354C 417.95,375.69 400.283,395.69 380.5,414C 359.375,433.432 335.042,447.432 307.5,456C 259.28,466.397 213.614,459.731 170.5,436C 140.535,415.036 115.702,389.203 96,358.5C 94.2419,356.235 92.0752,354.568 89.5,353.5 Z M 135.5,364.5 C 132.845,368.821 133.011,373.154 136,377.5C 146.269,388.774 157.435,398.941 169.5,408C 204.747,433.97 244.081,443.97 287.5,438C 330.148,428.867 363.814,406.533 388.5,371C 388.333,370.167 388.167,369.333 388,368.5C 385.592,366.376 383.092,366.543 380.5,369C 363.184,389.648 342.518,405.981 318.5,418C 262.683,439.309 212.35,430.309 167.5,391C 159.167,382.667 150.833,374.333 142.5,366C 140.323,364.798 137.989,364.298 135.5,364.5 Z"/></g>
<g><path style="opacity:0.699" fill="#0d773f" d="M 250.5,42.5 C 339.784,41.7092 407.617,79.0426 454,154.5C 485.86,215.562 490.194,278.562 467,343.5C 444.126,399.708 404.959,440.208 349.5,465C 291.167,488.333 232.833,488.333 174.5,465C 114.428,437.26 73.5946,392.093 52,329.5C 30.091,251.038 44.7577,180.371 96,117.5C 137.619,72.2748 189.119,47.2748 250.5,42.5 Z M 253.5,45.5 C 231.004,46.8656 209.004,51.3656 187.5,59C 189.885,59.0549 191.219,60.2216 191.5,62.5C 190.441,65.0682 188.774,67.2349 186.5,69C 148.283,90.5475 117.116,119.714 93,156.5C 89.7454,160.635 88.9121,165.135 90.5,170C 91.8333,170.667 93.1667,170.667 94.5,170C 112.328,144.835 132.995,122.168 156.5,102C 173.524,87.9835 192.524,77.3168 213.5,70C 262.217,57.5382 308.884,62.8715 353.5,86C 386.258,107.424 412.925,134.758 433.5,168C 438.549,171.877 441.382,170.71 442,164.5C 433.911,149.314 424.578,134.98 414,121.5C 391.599,97.4447 365.099,79.278 334.5,67C 330.085,63.148 330.752,60.4813 336.5,59C 309.654,49.5256 281.987,45.0256 253.5,45.5 Z M 182.5,61.5 C 175.007,63.9542 167.674,67.1209 160.5,71C 92.2171,110.007 53.8838,168.84 45.5,247.5C 45.0045,251.171 46.1711,254.171 49,256.5C 50.5683,245.757 52.5683,235.091 55,224.5C 57.9306,206.345 65.0973,190.179 76.5,176C 81.7358,173.53 85.0691,175.197 86.5,181C 81.0857,194.239 76.2524,207.739 72,221.5C 65.4845,250.064 65.8179,278.731 73,307.5C 75.9586,318.706 80.292,329.372 86,339.5C 86.6667,341.5 86.6667,343.5 86,345.5C 79.2419,350.396 73.9085,349.063 70,341.5C 60.4803,320.592 53.9803,298.759 50.5,276C 50.1667,275.5 49.8333,275 49.5,274.5C 47.7701,276.793 46.4367,279.293 45.5,282C 56.5377,365.999 100.204,425.999 176.5,462C 181.849,463.929 187.182,463.929 192.5,462C 191.833,461.333 191.167,460.667 190.5,460C 175.513,452.508 160.847,444.508 146.5,436C 119.48,417.099 98.6464,392.932 84,363.5C 81.0943,352.741 84.9276,349.241 95.5,353C 112.566,379.406 133.232,402.74 157.5,423C 181.095,441.121 207.761,452.121 237.5,456C 277.666,462.641 315,455.308 349.5,434C 381.209,411.957 407.876,384.957 429.5,353C 432.95,350.083 436.45,349.917 440,352.5C 441.917,357.278 441.583,361.945 439,366.5C 423.106,391.734 403.606,413.901 380.5,433C 367.256,442.206 353.756,451.04 340,459.5C 339.833,459.833 339.667,460.167 339.5,460.5C 345.482,462.038 351.148,461.205 356.5,458C 427.964,420.309 468.63,361.142 478.5,280.5C 477.877,278.289 476.877,276.289 475.5,274.5C 472.021,287.389 468.854,300.389 466,313.5C 462.921,323.071 459.255,332.404 455,341.5C 453.049,345.634 449.883,347.967 445.5,348.5C 441.309,348.641 438.976,346.641 438.5,342.5C 441.713,334.404 445.213,326.404 449,318.5C 463.672,273.243 460.672,229.243 440,186.5C 439.333,183.5 439.333,180.5 440,177.5C 442.679,174.165 445.845,173.665 449.5,176C 454.55,182.593 458.717,189.76 462,197.5C 468.377,215.342 472.71,233.676 475,252.5C 475.582,255.668 476.582,256.001 478,253.5C 477.446,226.733 471.779,201.066 461,176.5C 436.317,122.315 396.484,83.9821 341.5,61.5C 339.5,62 337.5,62.5 335.5,63C 336.167,63.6667 336.833,64.3333 337.5,65C 385.059,83.8944 420.559,116.061 444,161.5C 446.356,171.145 442.856,174.645 433.5,172C 424.301,160.435 415.468,148.601 407,136.5C 396.137,125.303 384.971,114.47 373.5,104C 346.393,82.289 315.393,69.9557 280.5,67C 252.09,63.9155 224.757,67.9155 198.5,79C 157.549,101.281 124.215,131.947 98.5,171C 95.8805,173.271 92.8805,173.938 89.5,173C 86.018,168.969 85.518,164.469 88,159.5C 112.032,119.467 144.532,88.3004 185.5,66C 189.168,62.6926 188.168,61.1926 182.5,61.5 Z M 253.5,87.5 C 206.574,93.7135 168.408,115.38 139,152.5C 135.894,158.218 137.394,160.718 143.5,160C 151.833,151.667 160.167,143.333 168.5,135C 214.699,95.8487 265.699,88.1821 321.5,112C 344.771,124.597 365.105,140.931 382.5,161C 392.284,164.875 395.117,161.708 391,151.5C 382.59,141.879 373.423,133.046 363.5,125C 331.371,99.4563 294.704,86.9563 253.5,87.5 Z M 262.5,119.5 C 246.605,120.474 231.272,124.307 216.5,131C 167.839,150.829 136.172,185.996 121.5,236.5C 122.143,239.975 124.143,241.141 127.5,240C 134.051,227.731 140.217,215.231 146,202.5C 169.181,166.136 202.014,143.47 244.5,134.5C 247.371,134.115 249.537,135.115 251,137.5C 252.378,141.987 251.212,145.487 247.5,148C 218.189,156.9 192.689,172.066 171,193.5C 157.862,211.106 147.862,230.44 141,251.5C 139.167,253.333 137.333,255.167 135.5,257C 127.51,260.261 119.51,260.261 111.5,257C 106.162,254.993 102.996,251.159 102,245.5C 102.374,233.361 105.041,221.695 110,210.5C 116.659,197.179 123.826,184.179 131.5,171.5C 130.833,168.833 129.167,167.167 126.5,166.5C 123.671,167.747 121.005,169.247 118.5,171C 100.479,192.556 89.6458,217.39 86,245.5C 79.1089,286.817 89.9423,322.651 118.5,353C 124.722,357.277 127.555,355.777 127,348.5C 119.305,337.113 112.638,325.113 107,312.5C 97.0694,284.123 106.903,271.29 136.5,274C 139.902,275.4 142.736,277.567 145,280.5C 150.056,291.001 154.722,301.668 159,312.5C 162.916,317.996 166.582,323.663 170,329.5C 182.68,344.185 197.18,356.685 213.5,367C 224.751,373.638 236.751,378.305 249.5,381C 253.644,384.979 253.31,388.645 248.5,392C 235.015,393.8 222.348,391.133 210.5,384C 173.396,361.648 147.229,330.148 132,289.5C 130.833,288.333 129.667,287.167 128.5,286C 126.633,285.289 125.133,285.789 124,287.5C 124.473,301.809 128.473,315.142 136,327.5C 148.633,346.474 163.8,363.307 181.5,378C 221.624,410.742 265.291,416.409 312.5,395C 359.56,374.942 389.893,340.275 403.5,291C 402.202,287.795 399.868,286.795 396.5,288C 389.872,301.424 383.372,314.924 377,328.5C 352.911,364.576 319.411,386.076 276.5,393C 271.779,389.426 271.446,385.426 275.5,381C 290.166,375.444 304.499,369.11 318.5,362C 349.814,341.657 370.98,313.49 382,277.5C 383.458,275.04 385.291,272.873 387.5,271C 395.637,266.738 403.971,266.404 412.5,270C 417.423,272.327 420.59,276.16 422,281.5C 421.626,293.639 418.959,305.305 414,316.5C 407.837,330.135 400.67,343.135 392.5,355.5C 393.146,357.977 394.646,359.644 397,360.5C 399.79,359.906 402.29,358.739 404.5,357C 428.65,328.226 440.316,294.892 439.5,257C 438.75,225.506 427.75,198.173 406.5,175C 404.557,173.445 402.39,172.278 400,171.5C 397.709,172.124 396.543,173.624 396.5,176C 403.956,188.408 410.79,201.242 417,214.5C 418.778,220.887 419.944,227.387 420.5,234C 420.448,239.292 418.781,243.959 415.5,248C 409.841,252.053 403.508,254.22 396.5,254.5C 389.156,254.789 383.322,252.122 379,246.5C 373.783,236.067 369.117,225.401 365,214.5C 361.246,208.658 357.246,202.991 353,197.5C 343.155,186.989 332.655,177.156 321.5,168C 307.685,157.761 292.352,150.761 275.5,147C 271.381,142.927 271.715,139.26 276.5,136C 279.075,135.042 281.741,134.542 284.5,134.5C 294.347,135.615 303.68,138.449 312.5,143C 349.865,165.032 377.365,195.866 395,235.5C 399.148,239.868 402.315,239.368 404.5,234C 403.603,228.976 402.103,224.143 400,219.5C 386.489,193.353 368.323,170.853 345.5,152C 321.766,131.471 294.099,120.638 262.5,119.5 Z M 335.5,290.5 C 337.022,289.809 338.022,288.642 338.5,287C 337.633,283.895 337.299,280.728 337.5,277.5C 335.669,278.052 334.003,278.052 332.5,277.5C 334.304,276.232 336.304,275.565 338.5,275.5C 338.297,273.61 338.963,272.11 340.5,271C 340.167,270.667 339.833,270.333 339.5,270C 341.706,268.193 344.039,267.693 346.5,268.5C 347.5,265.5 348.5,262.5 349.5,259.5C 348.452,256.016 348.785,252.516 350.5,249C 350.241,247.739 349.574,246.739 348.5,246C 346.285,245.83 344.285,245.163 342.5,244C 342.957,243.586 343.291,243.086 343.5,242.5C 340.44,239.047 338.44,235.047 337.5,230.5C 334.238,228.166 330.572,226.666 326.5,226C 324.76,220.583 321.093,217.916 315.5,218C 314.687,219.803 313.52,221.303 312,222.5C 308.841,218.402 305.174,214.735 301,211.5C 299.847,206.252 297.18,204.918 293,207.5C 292.274,204.54 290.44,202.54 287.5,201.5C 286.554,201.987 285.554,202.32 284.5,202.5C 282.677,201.246 280.677,200.246 278.5,199.5C 274.183,199.71 269.849,200.043 265.5,200.5C 263.936,199.231 262.269,198.064 260.5,197C 255.947,197.439 251.613,196.273 247.5,193.5C 245.5,194.833 243.833,196.5 242.5,198.5C 237.167,199.5 231.833,200.5 226.5,201.5C 225.764,203.541 224.931,205.541 224,207.5C 222.266,208.249 220.433,208.749 218.5,209C 216.959,211.916 215.293,214.749 213.5,217.5C 208.906,215.896 206.072,217.563 205,222.5C 204.275,221.941 203.442,221.608 202.5,221.5C 199.245,222.641 195.911,223.474 192.5,224C 191.475,226.071 190.642,228.238 190,230.5C 188.333,231.167 186.667,231.833 185,232.5C 184.296,237.527 182.796,242.36 180.5,247C 180.95,248.285 181.617,249.452 182.5,250.5C 182.257,252.955 182.257,255.455 182.5,258C 176.964,263.531 174.797,270.031 176,277.5C 176.953,279.592 178.286,279.925 180,278.5C 180.495,280.473 180.662,282.473 180.5,284.5C 181.833,284.5 183.167,284.5 184.5,284.5C 184.998,287.681 184.165,290.347 182,292.5C 180.097,298.253 181.93,300.419 187.5,299C 186.241,301.672 186.908,303.839 189.5,305.5C 192.091,303.719 194.425,301.719 196.5,299.5C 195.908,302.127 195.575,304.794 195.5,307.5C 197.262,307.643 198.929,307.309 200.5,306.5C 203.371,309.113 206.205,309.113 209,306.5C 212.08,306.969 215.246,307.135 218.5,307C 216.734,311.035 217.901,313.868 222,315.5C 225.719,312.171 229.386,308.838 233,305.5C 233.044,303.24 232.211,301.24 230.5,299.5C 230.808,298.692 231.308,298.025 232,297.5C 235.071,298.138 238.237,298.138 241.5,297.5C 241.148,300.073 241.648,302.406 243,304.5C 244.314,303.687 245.481,302.687 246.5,301.5C 247.493,304.493 249.493,306.493 252.5,307.5C 252.833,309.167 253.167,310.833 253.5,312.5C 252.615,324.4 251.615,336.233 250.5,348C 238.669,357.182 226.336,358.182 213.5,351C 170.478,323.433 154.645,284.6 166,234.5C 184.894,183.981 221.394,160.481 275.5,164C 320.276,172.302 348.443,198.469 360,242.5C 366.992,287.002 352.158,322.169 315.5,348C 301.315,357.302 286.648,357.969 271.5,350C 270.333,348.833 269.167,347.667 268,346.5C 264.914,334.325 263.248,321.992 263,309.5C 264.421,306.991 266.088,304.657 268,302.5C 271.058,302.763 274.225,302.93 277.5,303C 275.64,307.403 276.64,310.903 280.5,313.5C 282.5,312.833 283.833,311.5 284.5,309.5C 287.217,309.001 289.551,307.835 291.5,306C 294.877,305.548 298.211,304.882 301.5,304C 302.98,301.332 304.48,301.165 306,303.5C 307.085,302.707 308.252,302.04 309.5,301.5C 311.359,303.192 313.359,304.692 315.5,306C 316.899,306.595 318.232,306.428 319.5,305.5C 322.565,307.25 325.898,308.25 329.5,308.5C 329.351,307.448 329.517,306.448 330,305.5C 330.893,306.711 331.726,306.711 332.5,305.5C 333.137,302.893 334.304,300.56 336,298.5C 336.722,295.739 336.555,293.073 335.5,290.5 Z M 78.5,177.5 C 76.01,181.138 73.51,184.805 71,188.5C 61.0888,210.474 54.7555,233.474 52,257.5C 50.4773,259.62 48.6439,259.953 46.5,258.5C 45.3377,263.467 45.1711,268.467 46,273.5C 48.3819,269.534 50.7152,269.534 53,273.5C 56.414,296.826 63.0806,319.16 73,340.5C 74.3635,343.363 76.5302,345.363 79.5,346.5C 81.7857,346.04 83.119,344.707 83.5,342.5C 80.3361,335.505 77.1695,328.505 74,321.5C 58.5456,273.49 61.7123,226.824 83.5,181.5C 82.9879,178.649 81.3213,177.316 78.5,177.5 Z M 443.5,177.5 C 442.847,178.807 442.18,180.14 441.5,181.5C 448.08,195.662 453.247,210.329 457,225.5C 462.194,254.681 461.194,283.681 454,312.5C 450.658,322.849 446.492,332.849 441.5,342.5C 441.608,343.442 441.941,344.275 442.5,345C 445.347,345.944 447.847,345.444 450,343.5C 452.861,339.112 455.194,334.446 457,329.5C 463.87,311.356 468.87,292.69 472,273.5C 473.679,270.301 475.679,269.967 478,272.5C 478.667,267.833 478.667,263.167 478,258.5C 475.546,260.013 473.879,259.346 473,256.5C 471.765,247.09 470.098,237.757 468,228.5C 464.99,211.128 458.657,195.128 449,180.5C 447.736,178.393 445.903,177.393 443.5,177.5 Z M 248.5,198.5 C 245.972,199.883 243.639,201.549 241.5,203.5C 237.213,202.625 232.879,202.292 228.5,202.5C 228.613,205.049 227.946,207.382 226.5,209.5C 224.083,210.072 221.916,211.072 220,212.5C 219.816,215.119 218.983,217.619 217.5,220C 215.167,220.333 212.833,220.667 210.5,221C 208.971,222.862 207.137,224.362 205,225.5C 201.616,225.359 198.283,225.359 195,225.5C 194.556,230.611 191.889,233.944 187,235.5C 186.594,239.272 185.761,242.939 184.5,246.5C 185.212,249.648 185.879,252.814 186.5,256C 183.774,260.703 181.107,265.37 178.5,270C 179.38,271.356 179.714,272.856 179.5,274.5C 180.833,274.5 182.167,274.5 183.5,274.5C 183.192,276.924 183.526,279.257 184.5,281.5C 185.425,280.359 186.259,280.359 187,281.5C 187.346,283.218 187.846,284.885 188.5,286.5C 188.291,287.086 187.957,287.586 187.5,288C 190.124,288.576 190.791,289.91 189.5,292C 190.793,292.49 192.127,292.657 193.5,292.5C 193.5,293.5 193.5,294.5 193.5,295.5C 200.26,294.488 202.26,297.154 199.5,303.5C 202.548,301.53 204.715,302.196 206,305.5C 207.676,299.222 210.176,298.888 213.5,304.5C 215.111,303.68 215.778,302.346 215.5,300.5C 217.484,300.383 219.15,301.05 220.5,302.5C 220.78,305.604 221.28,308.604 222,311.5C 222.5,310.5 223,309.5 223.5,308.5C 226.119,308.024 228.119,306.691 229.5,304.5C 226.878,303.048 225.212,300.881 224.5,298C 227.171,296.999 229.504,295.499 231.5,293.5C 232.5,294.167 233.5,294.833 234.5,295.5C 237.758,294.583 241.091,294.249 244.5,294.5C 244.351,295.552 244.517,296.552 245,297.5C 245.718,296.549 246.551,296.383 247.5,297C 249.333,299.5 251.167,302 253,304.5C 253.414,304.043 253.914,303.709 254.5,303.5C 255.818,318.893 255.318,334.226 253,349.5C 247.241,354.129 240.741,357.296 233.5,359C 252.52,364.914 271.52,364.914 290.5,359C 283.588,357.807 276.921,355.807 270.5,353C 268,351.833 266.167,350 265,347.5C 263.667,340.167 262.333,332.833 261,325.5C 257.18,314.486 259.514,305.153 268,297.5C 269.921,299.003 272.088,299.669 274.5,299.5C 274.5,298.5 274.5,297.5 274.5,296.5C 276.722,296.178 278.556,296.845 280,298.5C 280.66,301.047 280.493,303.547 279.5,306C 279.862,307.225 280.362,308.391 281,309.5C 281.647,305.314 283.814,303.981 287.5,305.5C 288.478,305.023 289.311,304.357 290,303.5C 290.333,300.167 290.667,296.833 291,293.5C 293.704,288.027 295.537,288.194 296.5,294C 295.972,296.881 295.306,299.715 294.5,302.5C 296.655,302.628 298.655,302.128 300.5,301C 301.785,298.577 303.618,296.744 306,295.5C 307.651,296.742 309.485,297.576 311.5,298C 313.366,301.054 316.033,302.554 319.5,302.5C 318.665,297.008 320.332,295.674 324.5,298.5C 326.845,295.779 328.678,296.112 330,299.5C 331.064,297.731 332.231,296.064 333.5,294.5C 332.27,292.514 330.936,290.514 329.5,288.5C 330.712,286.077 332.712,285.077 335.5,285.5C 335.657,284.127 335.49,282.793 335,281.5C 333.887,282.711 332.72,282.711 331.5,281.5C 329.066,278.97 328.9,276.303 331,273.5C 334.705,271.801 336.872,268.967 337.5,265C 339.813,264.338 342.146,263.838 344.5,263.5C 344.328,261.508 344.995,259.842 346.5,258.5C 345.285,256.785 344.285,254.951 343.5,253C 343.354,250.812 344.354,249.479 346.5,249C 343.947,248.239 341.447,247.406 339,246.5C 338.405,245.101 338.572,243.768 339.5,242.5C 336.83,238.972 334.83,235.139 333.5,231C 329.981,230.605 326.648,229.605 323.5,228C 322.767,224.703 320.934,222.203 318,220.5C 316.916,221.665 316.083,222.998 315.5,224.5C 313.579,225.641 311.579,225.808 309.5,225C 304.678,220.246 300.178,215.079 296,209.5C 294.612,210.554 293.112,210.72 291.5,210C 290.349,207.881 288.849,206.047 287,204.5C 283.321,205.898 279.988,205.231 277,202.5C 274.667,203.833 272.333,203.833 270,202.5C 268,203.167 266,203.833 264,204.5C 262.333,203.233 260.833,201.733 259.5,200C 257.965,199.504 256.465,199.67 255,200.5C 253.121,198.987 250.954,198.321 248.5,198.5 Z M 192.5,296.5 C 191.537,297.363 191.537,298.03 192.5,298.5C 193.773,297.743 193.773,297.077 192.5,296.5 Z M 89.5,353.5 C 86.2361,354.694 85.0694,357.027 86,360.5C 103.195,394.363 128.028,421.196 160.5,441C 171.817,446.324 182.817,452.157 193.5,458.5C 196.359,463.525 194.693,466.025 188.5,466C 188.833,466.333 189.167,466.667 189.5,467C 239.746,484.225 289.746,483.558 339.5,465C 337.876,463.883 336.876,462.383 336.5,460.5C 337.559,457.932 339.226,455.765 341.5,454C 380.707,432.795 412.207,403.295 436,365.5C 437.233,363.134 438.066,360.634 438.5,358C 438.255,354.745 436.588,353.412 433.5,354C 417.95,375.69 400.283,395.69 380.5,414C 359.375,433.432 335.042,447.432 307.5,456C 259.28,466.397 213.614,459.731 170.5,436C 140.535,415.036 115.702,389.203 96,358.5C 94.2419,356.235 92.0752,354.568 89.5,353.5 Z M 135.5,364.5 C 132.845,368.821 133.011,373.154 136,377.5C 146.269,388.774 157.435,398.941 169.5,408C 204.747,433.97 244.081,443.97 287.5,438C 330.148,428.867 363.814,406.533 388.5,371C 388.333,370.167 388.167,369.333 388,368.5C 385.592,366.376 383.092,366.543 380.5,369C 363.184,389.648 342.518,405.981 318.5,418C 262.683,439.309 212.35,430.309 167.5,391C 159.167,382.667 150.833,374.333 142.5,366C 140.323,364.798 137.989,364.298 135.5,364.5 Z"/></g>
<g><path style="opacity:0.68" fill="#0d773f" d="M 256.5,84.5 C 310.326,85.832 355.159,106.499 391,146.5C 395.072,151.094 396.406,156.428 395,162.5C 390.994,167.166 386.494,167.666 381.5,164C 371.857,154.025 361.857,144.358 351.5,135C 288.892,88.199 227.559,89.8656 167.5,140C 160.135,147.03 153.135,154.364 146.5,162C 137.763,165.586 133.93,162.752 135,153.5C 165.396,112.718 205.896,89.7182 256.5,84.5 Z M 253.5,87.5 C 206.574,93.7135 168.408,115.38 139,152.5C 135.894,158.218 137.394,160.718 143.5,160C 151.833,151.667 160.167,143.333 168.5,135C 214.699,95.8487 265.699,88.1821 321.5,112C 344.771,124.597 365.105,140.931 382.5,161C 392.284,164.875 395.117,161.708 391,151.5C 382.59,141.879 373.423,133.046 363.5,125C 331.371,99.4563 294.704,86.9563 253.5,87.5 Z"/></g>
<g><path style="opacity:0.678" fill="#0d773f" d="M 249.5,117.5 C 288.734,114.743 322.734,126.576 351.5,153C 369.634,169.452 385.134,187.952 398,208.5C 402.436,216.537 405.603,225.037 407.5,234C 407.667,239.167 405.167,241.667 400,241.5C 397.739,241.561 395.739,240.894 394,239.5C 376.82,199.314 349.32,168.147 311.5,146C 301.579,140.186 290.912,137.52 279.5,138C 276.606,138.869 275.439,140.702 276,143.5C 316.254,155.47 347.254,179.47 369,215.5C 372.75,225.747 377.083,235.747 382,245.5C 391.333,252.971 401.166,253.471 411.5,247C 416.952,241.972 418.785,235.806 417,228.5C 416.294,223.01 414.961,217.677 413,212.5C 407.035,200.891 400.701,189.558 394,178.5C 393.497,168.823 397.663,166.323 406.5,171C 412.078,175.907 416.911,181.407 421,187.5C 428.521,200.208 434.688,213.542 439.5,227.5C 447.994,273.507 438.827,315.507 412,353.5C 408.326,358.836 403.326,362.169 397,363.5C 392.95,362.283 390.45,359.617 389.5,355.5C 397.237,342.564 404.403,329.231 411,315.5C 415.953,304.991 418.619,293.991 419,282.5C 417.99,278.157 415.49,274.99 411.5,273C 403.629,269.358 395.963,269.691 388.5,274C 387.213,275.41 386.046,276.91 385,278.5C 373.874,315.648 352.041,344.481 319.5,365C 305.852,371.991 291.852,378.158 277.5,383.5C 274.398,387.521 275.398,389.854 280.5,390.5C 336.891,376.948 374.391,342.615 393,287.5C 396.524,283.926 400.358,283.593 404.5,286.5C 406.619,289.637 406.785,292.97 405,296.5C 393.78,335.367 370.947,365.2 336.5,386C 273.459,424.563 215.792,417.896 163.5,366C 143.599,348.427 129.766,326.927 122,301.5C 121.176,298.215 120.676,294.882 120.5,291.5C 119.835,284.663 122.835,281.829 129.5,283C 132,284.167 133.833,286 135,288.5C 141.359,304.219 149.026,319.219 158,333.5C 174.891,355.064 195.391,372.231 219.5,385C 227.768,388.902 236.434,390.569 245.5,390C 250.189,387.999 250.522,385.666 246.5,383C 234.345,380.837 223.012,376.504 212.5,370C 189,355.833 170.167,337 156,313.5C 151.883,302.599 147.217,291.933 142,281.5C 134.279,275.207 125.779,274.04 116.5,278C 111.572,279.927 108.406,283.427 107,288.5C 106.282,297.472 107.615,306.138 111,314.5C 116.841,326.188 123.174,337.522 130,348.5C 130.503,358.177 126.337,360.677 117.5,356C 89.9722,327.754 78.1388,293.921 82,254.5C 84.0654,220.932 96.2321,191.766 118.5,167C 122.218,164.702 126.218,164.035 130.5,165C 132.662,166.645 133.995,168.812 134.5,171.5C 127.094,184.643 119.927,197.976 113,211.5C 108.047,222.009 105.381,233.009 105,244.5C 108.197,252.86 114.363,256.86 123.5,256.5C 130.411,257.064 135.578,254.397 139,248.5C 145.446,228.606 154.78,210.273 167,193.5C 188.757,171.088 214.591,155.255 244.5,146C 248.766,144.191 249.766,141.524 247.5,138C 208.741,144.748 177.574,163.914 154,195.5C 145.822,210.523 138.155,225.857 131,241.5C 120.18,245.348 116.514,241.681 120,230.5C 136.461,179.371 169.961,144.538 220.5,126C 230.084,122.411 239.751,119.578 249.5,117.5 Z M 262.5,119.5 C 246.605,120.474 231.272,124.307 216.5,131C 167.839,150.829 136.172,185.996 121.5,236.5C 122.143,239.975 124.143,241.141 127.5,240C 134.051,227.731 140.217,215.231 146,202.5C 169.181,166.136 202.014,143.47 244.5,134.5C 247.371,134.115 249.537,135.115 251,137.5C 252.378,141.987 251.212,145.487 247.5,148C 218.189,156.9 192.689,172.066 171,193.5C 157.862,211.106 147.862,230.44 141,251.5C 139.167,253.333 137.333,255.167 135.5,257C 127.51,260.261 119.51,260.261 111.5,257C 106.162,254.993 102.996,251.159 102,245.5C 102.374,233.361 105.041,221.695 110,210.5C 116.659,197.179 123.826,184.179 131.5,171.5C 130.833,168.833 129.167,167.167 126.5,166.5C 123.671,167.747 121.005,169.247 118.5,171C 100.479,192.556 89.6458,217.39 86,245.5C 79.1089,286.817 89.9423,322.651 118.5,353C 124.722,357.277 127.555,355.777 127,348.5C 119.305,337.113 112.638,325.113 107,312.5C 97.0694,284.123 106.903,271.29 136.5,274C 139.902,275.4 142.736,277.567 145,280.5C 150.056,291.001 154.722,301.668 159,312.5C 162.916,317.996 166.582,323.663 170,329.5C 182.68,344.185 197.18,356.685 213.5,367C 224.751,373.638 236.751,378.305 249.5,381C 253.644,384.979 253.31,388.645 248.5,392C 235.015,393.8 222.348,391.133 210.5,384C 173.396,361.648 147.229,330.148 132,289.5C 130.833,288.333 129.667,287.167 128.5,286C 126.633,285.289 125.133,285.789 124,287.5C 124.473,301.809 128.473,315.142 136,327.5C 148.633,346.474 163.8,363.307 181.5,378C 221.624,410.742 265.291,416.409 312.5,395C 359.56,374.942 389.893,340.275 403.5,291C 402.202,287.795 399.868,286.795 396.5,288C 389.872,301.424 383.372,314.924 377,328.5C 352.911,364.576 319.411,386.076 276.5,393C 271.779,389.426 271.446,385.426 275.5,381C 290.166,375.444 304.499,369.11 318.5,362C 349.814,341.657 370.98,313.49 382,277.5C 383.458,275.04 385.291,272.873 387.5,271C 395.637,266.738 403.971,266.404 412.5,270C 417.423,272.327 420.59,276.16 422,281.5C 421.626,293.639 418.959,305.305 414,316.5C 407.837,330.135 400.67,343.135 392.5,355.5C 393.146,357.977 394.646,359.644 397,360.5C 399.79,359.906 402.29,358.739 404.5,357C 428.65,328.226 440.316,294.892 439.5,257C 438.75,225.506 427.75,198.173 406.5,175C 404.557,173.445 402.39,172.278 400,171.5C 397.709,172.124 396.543,173.624 396.5,176C 403.956,188.408 410.79,201.242 417,214.5C 418.778,220.887 419.944,227.387 420.5,234C 420.448,239.292 418.781,243.959 415.5,248C 409.841,252.053 403.508,254.22 396.5,254.5C 389.156,254.789 383.322,252.122 379,246.5C 373.783,236.067 369.117,225.401 365,214.5C 361.246,208.658 357.246,202.991 353,197.5C 343.155,186.989 332.655,177.156 321.5,168C 307.685,157.761 292.352,150.761 275.5,147C 271.381,142.927 271.715,139.26 276.5,136C 279.075,135.042 281.741,134.542 284.5,134.5C 294.347,135.615 303.68,138.449 312.5,143C 349.865,165.032 377.365,195.866 395,235.5C 399.148,239.868 402.315,239.368 404.5,234C 403.603,228.976 402.103,224.143 400,219.5C 386.489,193.353 368.323,170.853 345.5,152C 321.766,131.471 294.099,120.638 262.5,119.5 Z M 335.5,290.5 C 337.022,289.809 338.022,288.642 338.5,287C 337.633,283.895 337.299,280.728 337.5,277.5C 335.669,278.052 334.003,278.052 332.5,277.5C 334.304,276.232 336.304,275.565 338.5,275.5C 338.297,273.61 338.963,272.11 340.5,271C 340.167,270.667 339.833,270.333 339.5,270C 341.706,268.193 344.039,267.693 346.5,268.5C 347.5,265.5 348.5,262.5 349.5,259.5C 348.452,256.016 348.785,252.516 350.5,249C 350.241,247.739 349.574,246.739 348.5,246C 346.285,245.83 344.285,245.163 342.5,244C 342.957,243.586 343.291,243.086 343.5,242.5C 340.44,239.047 338.44,235.047 337.5,230.5C 334.238,228.166 330.572,226.666 326.5,226C 324.76,220.583 321.093,217.916 315.5,218C 314.687,219.803 313.52,221.303 312,222.5C 308.841,218.402 305.174,214.735 301,211.5C 299.847,206.252 297.18,204.918 293,207.5C 292.274,204.54 290.44,202.54 287.5,201.5C 286.554,201.987 285.554,202.32 284.5,202.5C 282.677,201.246 280.677,200.246 278.5,199.5C 274.183,199.71 269.849,200.043 265.5,200.5C 263.936,199.231 262.269,198.064 260.5,197C 255.947,197.439 251.613,196.273 247.5,193.5C 245.5,194.833 243.833,196.5 242.5,198.5C 237.167,199.5 231.833,200.5 226.5,201.5C 225.764,203.541 224.931,205.541 224,207.5C 222.266,208.249 220.433,208.749 218.5,209C 216.959,211.916 215.293,214.749 213.5,217.5C 208.906,215.896 206.072,217.563 205,222.5C 204.275,221.941 203.442,221.608 202.5,221.5C 199.245,222.641 195.911,223.474 192.5,224C 191.475,226.071 190.642,228.238 190,230.5C 188.333,231.167 186.667,231.833 185,232.5C 184.296,237.527 182.796,242.36 180.5,247C 180.95,248.285 181.617,249.452 182.5,250.5C 182.257,252.955 182.257,255.455 182.5,258C 176.964,263.531 174.797,270.031 176,277.5C 176.953,279.592 178.286,279.925 180,278.5C 180.495,280.473 180.662,282.473 180.5,284.5C 181.833,284.5 183.167,284.5 184.5,284.5C 184.998,287.681 184.165,290.347 182,292.5C 180.097,298.253 181.93,300.419 187.5,299C 186.241,301.672 186.908,303.839 189.5,305.5C 192.091,303.719 194.425,301.719 196.5,299.5C 195.908,302.127 195.575,304.794 195.5,307.5C 197.262,307.643 198.929,307.309 200.5,306.5C 203.371,309.113 206.205,309.113 209,306.5C 212.08,306.969 215.246,307.135 218.5,307C 216.734,311.035 217.901,313.868 222,315.5C 225.719,312.171 229.386,308.838 233,305.5C 233.044,303.24 232.211,301.24 230.5,299.5C 230.808,298.692 231.308,298.025 232,297.5C 235.071,298.138 238.237,298.138 241.5,297.5C 241.148,300.073 241.648,302.406 243,304.5C 244.314,303.687 245.481,302.687 246.5,301.5C 247.493,304.493 249.493,306.493 252.5,307.5C 252.833,309.167 253.167,310.833 253.5,312.5C 252.615,324.4 251.615,336.233 250.5,348C 238.669,357.182 226.336,358.182 213.5,351C 170.478,323.433 154.645,284.6 166,234.5C 184.894,183.981 221.394,160.481 275.5,164C 320.276,172.302 348.443,198.469 360,242.5C 366.992,287.002 352.158,322.169 315.5,348C 301.315,357.302 286.648,357.969 271.5,350C 270.333,348.833 269.167,347.667 268,346.5C 264.914,334.325 263.248,321.992 263,309.5C 264.421,306.991 266.088,304.657 268,302.5C 271.058,302.763 274.225,302.93 277.5,303C 275.64,307.403 276.64,310.903 280.5,313.5C 282.5,312.833 283.833,311.5 284.5,309.5C 287.217,309.001 289.551,307.835 291.5,306C 294.877,305.548 298.211,304.882 301.5,304C 302.98,301.332 304.48,301.165 306,303.5C 307.085,302.707 308.252,302.04 309.5,301.5C 311.359,303.192 313.359,304.692 315.5,306C 316.899,306.595 318.232,306.428 319.5,305.5C 322.565,307.25 325.898,308.25 329.5,308.5C 329.351,307.448 329.517,306.448 330,305.5C 330.893,306.711 331.726,306.711 332.5,305.5C 333.137,302.893 334.304,300.56 336,298.5C 336.722,295.739 336.555,293.073 335.5,290.5 Z M 248.5,198.5 C 245.972,199.883 243.639,201.549 241.5,203.5C 237.213,202.625 232.879,202.292 228.5,202.5C 228.613,205.049 227.946,207.382 226.5,209.5C 224.083,210.072 221.916,211.072 220,212.5C 219.816,215.119 218.983,217.619 217.5,220C 215.167,220.333 212.833,220.667 210.5,221C 208.971,222.862 207.137,224.362 205,225.5C 201.616,225.359 198.283,225.359 195,225.5C 194.556,230.611 191.889,233.944 187,235.5C 186.594,239.272 185.761,242.939 184.5,246.5C 185.212,249.648 185.879,252.814 186.5,256C 183.774,260.703 181.107,265.37 178.5,270C 179.38,271.356 179.714,272.856 179.5,274.5C 180.833,274.5 182.167,274.5 183.5,274.5C 183.192,276.924 183.526,279.257 184.5,281.5C 185.425,280.359 186.259,280.359 187,281.5C 187.346,283.218 187.846,284.885 188.5,286.5C 188.291,287.086 187.957,287.586 187.5,288C 190.124,288.576 190.791,289.91 189.5,292C 190.793,292.49 192.127,292.657 193.5,292.5C 193.5,293.5 193.5,294.5 193.5,295.5C 200.26,294.488 202.26,297.154 199.5,303.5C 202.548,301.53 204.715,302.196 206,305.5C 207.676,299.222 210.176,298.888 213.5,304.5C 215.111,303.68 215.778,302.346 215.5,300.5C 217.484,300.383 219.15,301.05 220.5,302.5C 220.78,305.604 221.28,308.604 222,311.5C 222.5,310.5 223,309.5 223.5,308.5C 226.119,308.024 228.119,306.691 229.5,304.5C 226.878,303.048 225.212,300.881 224.5,298C 227.171,296.999 229.504,295.499 231.5,293.5C 232.5,294.167 233.5,294.833 234.5,295.5C 237.758,294.583 241.091,294.249 244.5,294.5C 244.351,295.552 244.517,296.552 245,297.5C 245.718,296.549 246.551,296.383 247.5,297C 249.333,299.5 251.167,302 253,304.5C 253.414,304.043 253.914,303.709 254.5,303.5C 255.818,318.893 255.318,334.226 253,349.5C 247.241,354.129 240.741,357.296 233.5,359C 252.52,364.914 271.52,364.914 290.5,359C 283.588,357.807 276.921,355.807 270.5,353C 268,351.833 266.167,350 265,347.5C 263.667,340.167 262.333,332.833 261,325.5C 257.18,314.486 259.514,305.153 268,297.5C 269.921,299.003 272.088,299.669 274.5,299.5C 274.5,298.5 274.5,297.5 274.5,296.5C 276.722,296.178 278.556,296.845 280,298.5C 280.66,301.047 280.493,303.547 279.5,306C 279.862,307.225 280.362,308.391 281,309.5C 281.647,305.314 283.814,303.981 287.5,305.5C 288.478,305.023 289.311,304.357 290,303.5C 290.333,300.167 290.667,296.833 291,293.5C 293.704,288.027 295.537,288.194 296.5,294C 295.972,296.881 295.306,299.715 294.5,302.5C 296.655,302.628 298.655,302.128 300.5,301C 301.785,298.577 303.618,296.744 306,295.5C 307.651,296.742 309.485,297.576 311.5,298C 313.366,301.054 316.033,302.554 319.5,302.5C 318.665,297.008 320.332,295.674 324.5,298.5C 326.845,295.779 328.678,296.112 330,299.5C 331.064,297.731 332.231,296.064 333.5,294.5C 332.27,292.514 330.936,290.514 329.5,288.5C 330.712,286.077 332.712,285.077 335.5,285.5C 335.657,284.127 335.49,282.793 335,281.5C 333.887,282.711 332.72,282.711 331.5,281.5C 329.066,278.97 328.9,276.303 331,273.5C 334.705,271.801 336.872,268.967 337.5,265C 339.813,264.338 342.146,263.838 344.5,263.5C 344.328,261.508 344.995,259.842 346.5,258.5C 345.285,256.785 344.285,254.951 343.5,253C 343.354,250.812 344.354,249.479 346.5,249C 343.947,248.239 341.447,247.406 339,246.5C 338.405,245.101 338.572,243.768 339.5,242.5C 336.83,238.972 334.83,235.139 333.5,231C 329.981,230.605 326.648,229.605 323.5,228C 322.767,224.703 320.934,222.203 318,220.5C 316.916,221.665 316.083,222.998 315.5,224.5C 313.579,225.641 311.579,225.808 309.5,225C 304.678,220.246 300.178,215.079 296,209.5C 294.612,210.554 293.112,210.72 291.5,210C 290.349,207.881 288.849,206.047 287,204.5C 283.321,205.898 279.988,205.231 277,202.5C 274.667,203.833 272.333,203.833 270,202.5C 268,203.167 266,203.833 264,204.5C 262.333,203.233 260.833,201.733 259.5,200C 257.965,199.504 256.465,199.67 255,200.5C 253.121,198.987 250.954,198.321 248.5,198.5 Z M 192.5,296.5 C 191.537,297.363 191.537,298.03 192.5,298.5C 193.773,297.743 193.773,297.077 192.5,296.5 Z"/></g>
<g><path style="opacity:0.711" fill="#0d773f" d="M 249.5,160.5 C 294.321,157.326 328.488,174.659 352,212.5C 373.771,258.026 367.937,299.526 334.5,337C 299.197,367.772 259.863,374.106 216.5,356C 174.677,332.53 155.844,296.697 160,248.5C 167.74,205.76 192.24,177.593 233.5,164C 238.954,162.745 244.287,161.578 249.5,160.5 Z M 335.5,290.5 C 337.022,289.809 338.022,288.642 338.5,287C 337.633,283.895 337.299,280.728 337.5,277.5C 335.669,278.052 334.003,278.052 332.5,277.5C 334.304,276.232 336.304,275.565 338.5,275.5C 338.297,273.61 338.963,272.11 340.5,271C 340.167,270.667 339.833,270.333 339.5,270C 341.706,268.193 344.039,267.693 346.5,268.5C 347.5,265.5 348.5,262.5 349.5,259.5C 348.452,256.016 348.785,252.516 350.5,249C 350.241,247.739 349.574,246.739 348.5,246C 346.285,245.83 344.285,245.163 342.5,244C 342.957,243.586 343.291,243.086 343.5,242.5C 340.44,239.047 338.44,235.047 337.5,230.5C 334.238,228.166 330.572,226.666 326.5,226C 324.76,220.583 321.093,217.916 315.5,218C 314.687,219.803 313.52,221.303 312,222.5C 308.841,218.402 305.174,214.735 301,211.5C 299.847,206.252 297.18,204.918 293,207.5C 292.274,204.54 290.44,202.54 287.5,201.5C 286.554,201.987 285.554,202.32 284.5,202.5C 282.677,201.246 280.677,200.246 278.5,199.5C 274.183,199.71 269.849,200.043 265.5,200.5C 263.936,199.231 262.269,198.064 260.5,197C 255.947,197.439 251.613,196.273 247.5,193.5C 245.5,194.833 243.833,196.5 242.5,198.5C 237.167,199.5 231.833,200.5 226.5,201.5C 225.764,203.541 224.931,205.541 224,207.5C 222.266,208.249 220.433,208.749 218.5,209C 216.959,211.916 215.293,214.749 213.5,217.5C 208.906,215.896 206.072,217.563 205,222.5C 204.275,221.941 203.442,221.608 202.5,221.5C 199.245,222.641 195.911,223.474 192.5,224C 191.475,226.071 190.642,228.238 190,230.5C 188.333,231.167 186.667,231.833 185,232.5C 184.296,237.527 182.796,242.36 180.5,247C 180.95,248.285 181.617,249.452 182.5,250.5C 182.257,252.955 182.257,255.455 182.5,258C 176.964,263.531 174.797,270.031 176,277.5C 176.953,279.592 178.286,279.925 180,278.5C 180.495,280.473 180.662,282.473 180.5,284.5C 181.833,284.5 183.167,284.5 184.5,284.5C 184.998,287.681 184.165,290.347 182,292.5C 180.097,298.253 181.93,300.419 187.5,299C 186.241,301.672 186.908,303.839 189.5,305.5C 192.091,303.719 194.425,301.719 196.5,299.5C 195.908,302.127 195.575,304.794 195.5,307.5C 197.262,307.643 198.929,307.309 200.5,306.5C 203.371,309.113 206.205,309.113 209,306.5C 212.08,306.969 215.246,307.135 218.5,307C 216.734,311.035 217.901,313.868 222,315.5C 225.719,312.171 229.386,308.838 233,305.5C 233.044,303.24 232.211,301.24 230.5,299.5C 230.808,298.692 231.308,298.025 232,297.5C 235.071,298.138 238.237,298.138 241.5,297.5C 241.148,300.073 241.648,302.406 243,304.5C 244.314,303.687 245.481,302.687 246.5,301.5C 247.493,304.493 249.493,306.493 252.5,307.5C 252.833,309.167 253.167,310.833 253.5,312.5C 252.615,324.4 251.615,336.233 250.5,348C 238.669,357.182 226.336,358.182 213.5,351C 170.478,323.433 154.645,284.6 166,234.5C 184.894,183.981 221.394,160.481 275.5,164C 320.276,172.302 348.443,198.469 360,242.5C 366.992,287.002 352.158,322.169 315.5,348C 301.315,357.302 286.648,357.969 271.5,350C 270.333,348.833 269.167,347.667 268,346.5C 264.914,334.325 263.248,321.992 263,309.5C 264.421,306.991 266.088,304.657 268,302.5C 271.058,302.763 274.225,302.93 277.5,303C 275.64,307.403 276.64,310.903 280.5,313.5C 282.5,312.833 283.833,311.5 284.5,309.5C 287.217,309.001 289.551,307.835 291.5,306C 294.877,305.548 298.211,304.882 301.5,304C 302.98,301.332 304.48,301.165 306,303.5C 307.085,302.707 308.252,302.04 309.5,301.5C 311.359,303.192 313.359,304.692 315.5,306C 316.899,306.595 318.232,306.428 319.5,305.5C 322.565,307.25 325.898,308.25 329.5,308.5C 329.351,307.448 329.517,306.448 330,305.5C 330.893,306.711 331.726,306.711 332.5,305.5C 333.137,302.893 334.304,300.56 336,298.5C 336.722,295.739 336.555,293.073 335.5,290.5 Z M 248.5,198.5 C 245.972,199.883 243.639,201.549 241.5,203.5C 237.213,202.625 232.879,202.292 228.5,202.5C 228.613,205.049 227.946,207.382 226.5,209.5C 224.083,210.072 221.916,211.072 220,212.5C 219.816,215.119 218.983,217.619 217.5,220C 215.167,220.333 212.833,220.667 210.5,221C 208.971,222.862 207.137,224.362 205,225.5C 201.616,225.359 198.283,225.359 195,225.5C 194.556,230.611 191.889,233.944 187,235.5C 186.594,239.272 185.761,242.939 184.5,246.5C 185.212,249.648 185.879,252.814 186.5,256C 183.774,260.703 181.107,265.37 178.5,270C 179.38,271.356 179.714,272.856 179.5,274.5C 180.833,274.5 182.167,274.5 183.5,274.5C 183.192,276.924 183.526,279.257 184.5,281.5C 185.425,280.359 186.259,280.359 187,281.5C 187.346,283.218 187.846,284.885 188.5,286.5C 188.291,287.086 187.957,287.586 187.5,288C 190.124,288.576 190.791,289.91 189.5,292C 190.793,292.49 192.127,292.657 193.5,292.5C 193.5,293.5 193.5,294.5 193.5,295.5C 200.26,294.488 202.26,297.154 199.5,303.5C 202.548,301.53 204.715,302.196 206,305.5C 207.676,299.222 210.176,298.888 213.5,304.5C 215.111,303.68 215.778,302.346 215.5,300.5C 217.484,300.383 219.15,301.05 220.5,302.5C 220.78,305.604 221.28,308.604 222,311.5C 222.5,310.5 223,309.5 223.5,308.5C 226.119,308.024 228.119,306.691 229.5,304.5C 226.878,303.048 225.212,300.881 224.5,298C 227.171,296.999 229.504,295.499 231.5,293.5C 232.5,294.167 233.5,294.833 234.5,295.5C 237.758,294.583 241.091,294.249 244.5,294.5C 244.351,295.552 244.517,296.552 245,297.5C 245.718,296.549 246.551,296.383 247.5,297C 249.333,299.5 251.167,302 253,304.5C 253.414,304.043 253.914,303.709 254.5,303.5C 255.818,318.893 255.318,334.226 253,349.5C 247.241,354.129 240.741,357.296 233.5,359C 252.52,364.914 271.52,364.914 290.5,359C 283.588,357.807 276.921,355.807 270.5,353C 268,351.833 266.167,350 265,347.5C 263.667,340.167 262.333,332.833 261,325.5C 257.18,314.486 259.514,305.153 268,297.5C 269.921,299.003 272.088,299.669 274.5,299.5C 274.5,298.5 274.5,297.5 274.5,296.5C 276.722,296.178 278.556,296.845 280,298.5C 280.66,301.047 280.493,303.547 279.5,306C 279.862,307.225 280.362,308.391 281,309.5C 281.647,305.314 283.814,303.981 287.5,305.5C 288.478,305.023 289.311,304.357 290,303.5C 290.333,300.167 290.667,296.833 291,293.5C 293.704,288.027 295.537,288.194 296.5,294C 295.972,296.881 295.306,299.715 294.5,302.5C 296.655,302.628 298.655,302.128 300.5,301C 301.785,298.577 303.618,296.744 306,295.5C 307.651,296.742 309.485,297.576 311.5,298C 313.366,301.054 316.033,302.554 319.5,302.5C 318.665,297.008 320.332,295.674 324.5,298.5C 326.845,295.779 328.678,296.112 330,299.5C 331.064,297.731 332.231,296.064 333.5,294.5C 332.27,292.514 330.936,290.514 329.5,288.5C 330.712,286.077 332.712,285.077 335.5,285.5C 335.657,284.127 335.49,282.793 335,281.5C 333.887,282.711 332.72,282.711 331.5,281.5C 329.066,278.97 328.9,276.303 331,273.5C 334.705,271.801 336.872,268.967 337.5,265C 339.813,264.338 342.146,263.838 344.5,263.5C 344.328,261.508 344.995,259.842 346.5,258.5C 345.285,256.785 344.285,254.951 343.5,253C 343.354,250.812 344.354,249.479 346.5,249C 343.947,248.239 341.447,247.406 339,246.5C 338.405,245.101 338.572,243.768 339.5,242.5C 336.83,238.972 334.83,235.139 333.5,231C 329.981,230.605 326.648,229.605 323.5,228C 322.767,224.703 320.934,222.203 318,220.5C 316.916,221.665 316.083,222.998 315.5,224.5C 313.579,225.641 311.579,225.808 309.5,225C 304.678,220.246 300.178,215.079 296,209.5C 294.612,210.554 293.112,210.72 291.5,210C 290.349,207.881 288.849,206.047 287,204.5C 283.321,205.898 279.988,205.231 277,202.5C 274.667,203.833 272.333,203.833 270,202.5C 268,203.167 266,203.833 264,204.5C 262.333,203.233 260.833,201.733 259.5,200C 257.965,199.504 256.465,199.67 255,200.5C 253.121,198.987 250.954,198.321 248.5,198.5 Z M 192.5,296.5 C 191.537,297.363 191.537,298.03 192.5,298.5C 193.773,297.743 193.773,297.077 192.5,296.5 Z"/></g>
<g><path style="opacity:0.683" fill="#0d773f" d="M 135.5,361.5 C 139.719,360.979 143.386,362.146 146.5,365C 166.017,388.255 189.683,405.922 217.5,418C 265.188,434.261 308.854,426.928 348.5,396C 359.798,387.036 370.132,377.036 379.5,366C 388.453,362.212 392.286,365.045 391,374.5C 364.699,409.91 329.866,432.077 286.5,441C 241.761,446.733 201.428,436.066 165.5,409C 153.408,400.243 142.574,390.076 133,378.5C 128.936,371.837 129.769,366.17 135.5,361.5 Z M 135.5,364.5 C 132.845,368.821 133.011,373.154 136,377.5C 146.269,388.774 157.435,398.941 169.5,408C 204.747,433.97 244.081,443.97 287.5,438C 330.148,428.867 363.814,406.533 388.5,371C 388.333,370.167 388.167,369.333 388,368.5C 385.592,366.376 383.092,366.543 380.5,369C 363.184,389.648 342.518,405.981 318.5,418C 262.683,439.309 212.35,430.309 167.5,391C 159.167,382.667 150.833,374.333 142.5,366C 140.323,364.798 137.989,364.298 135.5,364.5 Z"/></g>
</svg>
